<svg width="40" height="41" viewBox="0 0 40 41" fill="none" xmlns="http://www.w3.org/2000/svg">
<path d="M35.6242 29.8479C34.5372 29.7768 33.4591 30.1339 32.6466 30.8654C31.4014 31.9863 30.3073 33.6335 29.9292 34.231C29.8578 34.3439 29.9212 34.4945 30.0514 34.5208C34.0084 35.3213 37.5754 29.5964 37.5754 29.5964C36.8126 29.8567 36.1038 29.8793 35.6242 29.8479Z" fill="#FFA729"/>
<path d="M28.2873 33.2978C28.7736 32.6916 29.7788 31.3607 30.3578 30.0428C30.7701 29.1043 30.776 28.0348 30.4016 27.0803C30.2364 26.6591 30.0531 26.0169 30.0639 25.2581C30.0639 25.2581 26.1755 29.9317 27.7861 33.2436C27.8819 33.4407 28.1503 33.4685 28.2873 33.2978Z" fill="#FFA729"/>
<path d="M31.6973 28.1392C31.8113 28.2794 32.0314 28.2535 32.1095 28.0902C32.3868 27.5109 32.9479 26.2458 33.1671 25.0727C33.323 24.2387 33.1272 23.3768 32.6469 22.6799C32.4349 22.3724 32.167 21.8904 32.0334 21.2776C32.0334 21.2776 29.7801 25.7805 31.6973 28.1392Z" fill="#FFA729"/>
<path d="M33.7695 23.4764C33.9596 23.6591 34.276 23.5621 34.3403 23.3054C34.5033 22.6546 34.751 21.4918 34.7469 20.4522C34.7436 19.6304 34.3875 18.8548 33.8082 18.2768C33.5558 18.0249 33.2277 17.6267 32.9977 17.0879C32.9977 17.0879 31.745 21.5303 33.7695 23.4764Z" fill="#FFA729"/>
<path d="M33.154 13.7771C33.154 13.7771 33.0415 17.6236 35.1032 18.6861C35.253 18.7633 35.4309 18.652 35.4321 18.4823C35.4357 17.9607 35.4101 16.9327 35.1901 16.0693C35.0274 15.4311 34.6084 14.8901 34.0431 14.5595C33.7937 14.4136 33.4479 14.1636 33.154 13.7771Z" fill="#FFA729"/>
<path d="M35.2276 14.7416C35.3178 14.7835 35.4216 14.7165 35.4231 14.6164C35.4285 14.228 35.4168 13.3484 35.2303 12.6168C35.1003 12.1066 34.7653 11.674 34.3134 11.4097C34.114 11.2931 33.8375 11.0932 33.6025 10.7842C33.6025 10.7842 33.5102 13.9419 35.2276 14.7416Z" fill="#FFA729"/>
<path d="M34.7101 10.5612C34.8054 10.6124 34.9203 10.5469 34.9208 10.438C34.9222 10.1321 34.9058 9.55082 34.781 9.06122C34.687 8.69279 34.4451 8.3804 34.1188 8.18952C33.9748 8.10529 33.7752 7.96099 33.6054 7.73779C33.6054 7.73779 33.5413 9.93278 34.7101 10.5612Z" fill="#FFA729"/>
<path d="M35.3832 25.9609C34.6288 26.868 33.9964 28.0464 33.6267 28.8062C33.4394 29.1914 33.7548 29.6252 34.1767 29.569C37.4791 29.1296 39.6574 24.1685 39.6574 24.1685C39.0042 24.5034 38.3688 24.6171 37.9329 24.6521C36.9448 24.7313 36.0201 25.1951 35.3832 25.9609Z" fill="#FFA729"/>
<path d="M36.6418 20.4892C36.0694 21.7237 35.7555 23.3818 35.6425 24.0705C35.6137 24.2466 35.7542 24.404 35.9309 24.3945C39.1041 24.2245 40 18.3442 40 18.3442C39.5004 18.7356 38.9671 18.8953 38.5916 18.9599C37.7406 19.1064 37.031 19.6496 36.6418 20.4892Z" fill="#FFA729"/>
<path d="M37.0332 16.0984C36.7069 17.1115 36.6174 18.3725 36.5931 18.9229C36.5869 19.065 36.7226 19.1741 36.8569 19.1307C39.3479 18.3253 39.4828 13.8005 39.4828 13.8005C39.1254 14.1957 38.7187 14.4271 38.4277 14.5547C37.7682 14.8439 37.2594 15.3959 37.0332 16.0984Z" fill="#FFA729"/>
<path d="M37.1673 12.241C36.8667 13.1866 36.7959 14.3512 36.7795 14.7886C36.7762 14.8777 36.8639 14.9411 36.9473 14.9111C39.2091 14.0991 39.3254 10.0808 39.3254 10.0808C39.0106 10.448 38.6522 10.6763 38.3957 10.8067C37.8142 11.1023 37.3661 11.6158 37.1673 12.241Z" fill="#FFA729"/>
<path d="M36.765 11.282C38.5306 10.1184 37.8836 6.65356 37.8836 6.65356C37.6793 7.03295 37.4108 7.29992 37.2125 7.46239C36.763 7.83059 36.4704 8.36265 36.4155 8.94393C36.3355 9.79073 36.4792 10.7733 36.5508 11.1869C36.5681 11.2864 36.6812 11.3372 36.765 11.282Z" fill="#FFA729"/>
<path d="M36.366 16.9227C36.456 14.9449 36.3224 12.9602 35.9791 11.0169C35.6365 9.07306 35.0846 7.17144 34.3574 5.34521C33.6305 3.51818 32.7294 1.76682 31.6967 0.101318C32.691 1.79074 33.5494 3.55943 34.2309 5.39456C34.9127 7.22889 35.4165 9.12943 35.7113 11.0614C36.0068 12.9928 36.093 14.9547 35.9597 16.8992C35.8269 18.8437 35.4751 20.7701 34.9134 22.6293C33.793 26.3493 31.8265 29.7943 29.2199 32.6291C28.0285 33.9284 26.7022 35.0989 25.2717 36.1157C22.1165 38.3584 17.8836 38.3584 14.7284 36.1157C13.2979 35.0989 11.9716 33.9284 10.7801 32.6291C8.17352 29.7943 6.20709 26.3493 5.08666 22.6293C4.52503 20.7701 4.17315 18.8437 4.04044 16.8992C3.90703 14.9547 3.99326 12.9928 4.28877 11.0614C4.58359 9.12948 5.08736 7.22894 5.76916 5.39456C6.45064 3.55943 7.30908 1.79074 8.3033 0.101318C7.27064 1.76677 6.36947 3.51818 5.64263 5.34521C4.91546 7.1714 4.36363 9.07301 4.02098 11.0169C3.67764 12.9602 3.544 14.9449 3.63399 16.9227C3.72324 18.9004 4.03579 20.8706 4.56543 22.7822C5.62182 26.6069 7.55394 30.1914 10.1763 33.1798C12.7937 36.1707 16.1058 38.5647 19.8037 40.0625C19.8068 40.0637 19.8126 40.066 19.8157 40.0671C19.9672 40.1243 20.127 40.1069 20.2595 40.0361C23.9319 38.5367 27.2213 36.1536 29.8238 33.1798C32.4461 30.1914 34.3783 26.6069 35.4347 22.7822C35.9642 20.8705 36.2768 18.9004 36.366 16.9227Z" fill="#FFA729"/>
<path d="M7.35338 30.8654C6.54086 30.1339 5.46269 29.7768 4.37574 29.8479C3.89616 29.8792 3.18733 29.8567 2.4245 29.5964C2.4245 29.5964 5.99158 35.3213 9.94858 34.5208C10.0787 34.4945 10.1421 34.3438 10.0707 34.231C9.69267 33.6335 8.59858 31.9863 7.35338 30.8654Z" fill="#FFA729"/>
<path d="M11.7127 33.2978C11.8496 33.4685 12.1181 33.4408 12.2139 33.2436C13.8244 29.9317 9.93604 25.2581 9.93604 25.2581C9.94686 26.0169 9.76353 26.6591 9.59836 27.0803C9.22396 28.0348 9.22986 29.1043 9.64215 30.0428C10.2211 31.3608 11.2263 32.6917 11.7127 33.2978Z" fill="#FFA729"/>
<path d="M7.89046 28.0902C7.96861 28.2535 8.18867 28.2794 8.30266 28.1392C10.2199 25.7805 7.96661 21.2776 7.96661 21.2776C7.83302 21.8904 7.56504 22.3724 7.35311 22.6799C6.87279 23.3768 6.67702 24.2387 6.83286 25.0727C7.05212 26.2458 7.61315 27.5109 7.89046 28.0902Z" fill="#FFA729"/>
<path d="M6.23042 23.4763C8.25493 21.5302 7.00221 17.0879 7.00221 17.0879C6.77213 17.6267 6.44407 18.0249 6.19169 18.2768C5.61242 18.8548 5.25631 19.6304 5.25301 20.4522C5.24888 21.4918 5.49666 22.6545 5.65964 23.3054C5.72395 23.562 6.04036 23.659 6.23042 23.4763Z" fill="#FFA729"/>
<path d="M4.56784 18.4823C4.569 18.652 4.74694 18.7633 4.89674 18.6861C6.95836 17.6236 6.84589 13.7771 6.84589 13.7771C6.55191 14.1636 6.20616 14.4136 5.95676 14.5595C5.3915 14.8901 4.97247 15.4311 4.80981 16.0693C4.58976 16.9327 4.56422 17.9608 4.56784 18.4823Z" fill="#FFA729"/>
<path d="M4.5769 14.6164C4.57834 14.7165 4.68222 14.7836 4.77235 14.7416C6.48974 13.9419 6.39748 10.7842 6.39748 10.7842C6.16247 11.0932 5.88604 11.2931 5.68665 11.4097C5.23474 11.674 4.89972 12.1066 4.7697 12.6168C4.58317 13.3483 4.57142 14.2279 4.5769 14.6164Z" fill="#FFA729"/>
<path d="M5.28981 10.5612C6.45863 9.93278 6.39445 7.73779 6.39445 7.73779C6.22473 7.96099 6.02511 8.10529 5.88111 8.18952C5.55477 8.3804 5.31284 8.69279 5.21891 9.06122C5.09414 9.55078 5.07765 10.1321 5.07909 10.438C5.0796 10.5469 5.19453 10.6124 5.28981 10.5612Z" fill="#FFA729"/>
<path d="M5.82327 29.5692C6.24508 29.6253 6.56056 29.1916 6.3732 28.8064C6.00348 28.0466 5.37113 26.8682 4.6167 25.9611C3.9798 25.1953 3.05519 24.7315 2.0671 24.6523C1.63117 24.6173 0.99576 24.5036 0.34256 24.1687C0.342467 24.1687 2.52082 29.1298 5.82327 29.5692Z" fill="#FFA729"/>
<path d="M4.06909 24.3945C4.24577 24.4039 4.38624 24.2465 4.3574 24.0705C4.24447 23.3817 3.93053 21.7236 3.35817 20.4891C2.96891 19.6496 2.25938 19.1063 1.40837 18.9599C1.0329 18.8953 0.499639 18.7356 0 18.3442C0 18.3442 0.895915 24.2244 4.06909 24.3945Z" fill="#FFA729"/>
<path d="M3.14297 19.1306C3.2773 19.174 3.41299 19.065 3.40672 18.9229C3.38248 18.3725 3.29291 17.1115 2.9667 16.0984C2.74047 15.3959 2.23168 14.8439 1.57217 14.5547C1.28116 14.4271 0.874483 14.1957 0.51712 13.8005C0.51712 13.8005 0.651921 18.3252 3.14297 19.1306Z" fill="#FFA729"/>
<path d="M3.05265 14.9111C3.136 14.9411 3.22371 14.8777 3.22037 14.7886C3.20402 14.3512 3.13326 13.1866 2.83264 12.241C2.63385 11.6158 2.18571 11.1023 1.6043 10.8067C1.34774 10.6763 0.989312 10.448 0.67453 10.0808C0.67453 10.0808 0.790849 14.0991 3.05265 14.9111Z" fill="#FFA729"/>
<path d="M3.23495 11.2819C3.31881 11.3372 3.43188 11.2864 3.4491 11.1869C3.52071 10.7733 3.66438 9.79072 3.58442 8.94393C3.52953 8.3626 3.2369 7.83058 2.78741 7.46239C2.58908 7.29992 2.32069 7.0329 2.11633 6.65356C2.11633 6.65356 1.46935 10.1184 3.23495 11.2819Z" fill="#FFA729"/>
<path d="M22.5105 18.1957C23.8973 16.7974 23.8973 14.5303 22.5105 13.132C21.1237 11.7337 18.8753 11.7337 17.4885 13.132C16.1017 14.5303 16.1017 16.7974 17.4885 18.1957C18.8753 19.594 21.1237 19.594 22.5105 18.1957Z" fill="#004F44"/>
<path d="M28.1162 10.5156L20.1867 7.75184C20.133 7.73311 20.0745 7.73311 20.0207 7.75184L11.8175 10.6111C11.6769 10.6601 11.678 10.861 11.8192 10.9085L13.1063 11.3411V14.9552C13.1063 15.1031 13.195 15.2229 13.3044 15.2229H13.5543C13.6636 15.2229 13.7523 15.1031 13.7523 14.9552V11.5582L16.6076 12.5179V13.078C16.6076 13.6042 17.0307 14.0307 17.5525 14.0307H22.4473C22.9692 14.0307 23.3922 13.6042 23.3922 13.078V12.5876L28.1135 11.0009C28.3438 10.9234 28.3456 10.5956 28.1162 10.5156Z" fill="#004F44"/>
<path d="M13.9317 15.8095C13.9317 15.5298 13.7068 15.303 13.4293 15.303C13.1519 15.303 12.9269 15.5298 12.9269 15.8095C12.9269 16.0893 13.1519 16.3161 13.4293 16.3161C13.7068 16.3161 13.9317 16.0893 13.9317 15.8095Z" fill="#004F44"/>
<path d="M13.7031 16.5239C13.6901 16.4423 13.6203 16.3823 13.5384 16.3823H13.4294H13.3203C13.2384 16.3823 13.1686 16.4423 13.1556 16.5239L12.6806 19.508C12.6154 19.9182 12.9296 20.29 13.3416 20.29H13.4293H13.517C13.9291 20.29 14.2433 19.9183 14.178 19.508L13.7031 16.5239Z" fill="#004F44"/>
<path d="M27.4974 25.0812C24.914 28.1224 20.9448 29.8524 20.1135 32.1614C20.0743 32.2702 19.925 32.2702 19.8858 32.1614C19.0545 29.8524 15.0854 28.1224 12.502 25.0812C12.3386 24.8889 12.3486 24.5864 12.5262 24.4074L14.9105 22.0049C16.0694 20.8364 17.5246 20.1497 19.0327 19.9459C19.3967 19.8968 19.7052 20.2161 19.6476 20.5819L18.889 25.4015C18.8699 25.5232 18.9083 25.6469 18.9931 25.7357L19.7187 26.4962C19.8721 26.657 20.1273 26.657 20.2806 26.4962L21.0063 25.7357C21.091 25.6469 21.1296 25.5232 21.1104 25.4015L20.3518 20.5819C20.2942 20.2162 20.6027 19.8968 20.9667 19.946C22.4748 20.1497 23.93 20.8365 25.0889 22.005L27.4732 24.4075C27.6507 24.5865 27.6608 24.8889 27.4974 25.0812Z" fill="#004F44"/>
</svg>
