<svg width="50" height="50" viewBox="0 0 50 50" fill="none" xmlns="http://www.w3.org/2000/svg">
<g clip-path="url(#clip0_2054_4417)">
<path d="M1.37917 17.2655C1.75876 17.4483 2.18825 17.5406 2.64792 17.5406C2.9112 17.5406 3.18425 17.5105 3.46393 17.4495C5.14274 17.0833 6.08951 15.7932 5.76686 14.3118V14.3115L3.92008 5.84513L11.6844 4.15148L13.0532 10.4259C12.6161 10.3431 12.1239 10.3546 11.5932 10.4701C9.8771 10.8443 8.93863 12.0822 9.25875 13.5497C9.52837 14.7864 10.5477 15.5334 11.8539 15.5334C12.1121 15.5334 12.3822 15.504 12.6595 15.4437C14.3383 15.0775 15.2855 13.787 14.9624 12.3058V12.3054L12.5015 1.02307C12.3492 0.322677 11.6544 -0.122928 10.9533 0.0300992L2.86803 1.79357C2.70119 1.82951 2.54311 1.89814 2.40293 1.99551C2.26276 2.09288 2.14326 2.21705 2.05134 2.36086C1.95851 2.50424 1.89509 2.66463 1.86476 2.83273C1.83444 3.00083 1.83781 3.17327 1.87468 3.34005L3.85758 12.432C3.42038 12.3492 2.9279 12.3603 2.39763 12.4759C1.63054 12.6434 1.00114 12.9855 0.578098 13.465C0.076146 14.0342 -0.107057 14.7766 0.0631577 15.5555C0.232103 16.3303 0.699387 16.9374 1.37917 17.2655ZM12.3472 14.0124C12.0142 14.0849 10.9094 14.2443 10.69 13.2377C10.4959 12.348 11.3683 12.0185 11.9058 11.9014C12.0863 11.8621 12.28 11.8347 12.4689 11.8347C12.9492 11.8347 13.3989 12.0112 13.5313 12.6174V12.6178C13.751 13.6241 12.6806 13.9395 12.3472 14.0124ZM11.1055 1.49601L11.3725 2.72013L3.60807 4.41398L3.34108 3.19025L11.1055 1.49601ZM1.67673 14.4345C1.88923 14.1937 2.25622 14.0064 2.71012 13.9072C2.89059 13.868 3.08434 13.8405 3.27321 13.8405C3.75348 13.8405 4.20319 14.0175 4.33561 14.6232V14.6236C4.55495 15.6304 3.48493 15.9459 3.15153 16.0183C2.71403 16.1137 2.31032 16.0881 2.01511 15.9458C1.73854 15.8127 1.56804 15.5826 1.4944 15.2435C1.42233 14.914 1.48024 14.6568 1.67673 14.4345ZM49.889 36.6446C49.8206 36.488 49.7218 36.3466 49.5984 36.2285C49.475 36.1104 49.3294 36.0179 49.17 35.9564L41.4556 32.9588C40.7868 32.6991 40.0323 33.0317 39.7726 33.7001L36.4007 42.3796C36.0772 42.0611 35.6595 41.7963 35.1621 41.603C34.4301 41.3188 33.7167 41.2562 33.0986 41.4221C32.3659 41.619 31.8036 42.1369 31.5149 42.8801C31.2276 43.6194 31.2817 44.3838 31.6671 45.0324C32.0054 45.6019 32.5711 46.0535 33.3031 46.3377C33.7438 46.509 34.1764 46.591 34.5842 46.591C35.6591 46.591 36.5582 46.0192 36.9565 44.9946L40.0944 36.9174L47.5018 39.7955L45.1737 45.788C44.8503 45.4699 44.4329 45.2051 43.9351 45.0117C42.2978 44.3754 40.8318 44.8889 40.2879 46.2889C40.0006 47.0281 40.0548 47.7923 40.4404 48.4412C40.7788 49.0107 41.3445 49.4619 42.0762 49.7465C42.5168 49.9174 42.9498 49.9998 43.3575 49.9998C44.4325 49.9998 45.3316 49.4276 45.7296 48.403L49.9112 37.6395C49.9734 37.4804 50.0035 37.3106 49.9997 37.1398C49.9959 36.969 49.9583 36.8007 49.889 36.6446ZM33.8334 44.9721C33.4157 44.81 33.0934 44.5658 32.9263 44.2843C32.7695 44.02 32.7542 43.7342 32.8801 43.4107C33.0022 43.096 33.1926 42.914 33.479 42.8369C33.5794 42.8099 33.6903 42.7965 33.8091 42.7965C34.0565 42.7965 34.3389 42.8545 34.6314 42.9686C35.0591 43.1346 35.3849 43.3714 35.5492 43.6358C35.7019 43.8811 35.7148 44.1443 35.5908 44.4639C35.2178 45.4241 34.1516 45.0957 33.8334 44.9721ZM40.6247 35.5517L41.0783 34.384L48.486 37.2622L48.0325 38.4298L40.6247 35.5517ZM42.6064 48.3808C42.1888 48.2187 41.8668 47.9742 41.6997 47.6927C41.5425 47.4287 41.5276 47.143 41.6531 46.8196C41.8378 46.3446 42.2036 46.2004 42.5802 46.2004C42.8761 46.2004 43.179 46.2897 43.4044 46.3774C43.8321 46.5434 44.1579 46.7802 44.3223 47.0446C44.4749 47.2899 44.4879 47.5531 44.3638 47.8724C43.9908 48.8329 42.9246 48.5044 42.6064 48.3809V48.3808ZM21.5109 46.6502C17.0072 49.9232 10.1534 48.8524 5.56774 44.1595C2.89323 41.4225 1.39821 37.8306 1.46726 34.305C1.52224 31.4879 2.59186 28.953 4.47897 27.167C5.82291 25.8967 7.53687 25.04 9.4358 24.6889C12.0161 24.2126 14.3007 22.9667 16.0424 21.0864C16.1078 21.0159 16.1587 20.9332 16.1921 20.843C16.2256 20.7528 16.2409 20.6569 16.2372 20.5608C16.2336 20.4647 16.211 20.3702 16.1709 20.2828C16.1307 20.1954 16.0737 20.1168 16.0032 20.0514C15.9327 19.986 15.85 19.9351 15.7598 19.9016C15.6696 19.8682 15.5737 19.8528 15.4775 19.8565C15.3814 19.8601 15.287 19.8827 15.1996 19.9229C15.1122 19.9631 15.0335 20.0201 14.9682 20.0907C13.442 21.738 11.4374 22.8297 9.16988 23.2485C6.99254 23.6507 5.02262 24.6375 3.47233 26.1027C1.29753 28.1611 0.0654038 31.0636 0.00280625 34.2765C-0.0738538 38.1922 1.57292 42.1675 4.52018 45.1834C7.6025 48.3377 11.6312 49.9998 15.4604 49.9998C17.9547 49.9998 20.3653 49.2938 22.3718 47.8354C22.5264 47.7202 22.6294 47.5488 22.6585 47.3582C22.6875 47.1677 22.6403 46.9733 22.527 46.8173C22.4137 46.6614 22.2435 46.5563 22.0533 46.525C21.8631 46.4937 21.6682 46.5387 21.5109 46.6501V46.6502Z" fill="#004F44"/>
<path d="M34.159 31.9219C35.6898 30.3907 36.4214 28.418 36.2738 26.2171C36.1571 24.4703 35.4941 22.6145 34.3524 20.8174L39.0265 16.1432C39.0945 16.0752 39.1484 15.9945 39.1852 15.9057C39.2221 15.8169 39.241 15.7217 39.241 15.6255C39.241 15.5294 39.2221 15.4341 39.1853 15.3453C39.1485 15.2565 39.0946 15.1757 39.0266 15.1077C38.9587 15.0397 38.8779 14.9858 38.7891 14.949C38.7003 14.9122 38.6051 14.8932 38.5089 14.8932C38.4128 14.8932 38.3175 14.9121 38.2287 14.9489C38.1399 14.9857 38.0591 15.0396 37.9911 15.1076L25.0312 28.0672C24.7484 27.3671 24.3271 26.7315 23.7925 26.1983C23.2496 25.6555 22.6153 25.2381 21.924 24.9597L37.1789 9.70348L40.2868 12.8113L40.2002 12.8979C40.0977 13.0003 40.028 13.1308 39.9997 13.2729C39.9714 13.415 39.9859 13.5623 40.0414 13.6961C40.0969 13.8299 40.1908 13.9443 40.3113 14.0247C40.4318 14.1052 40.5734 14.148 40.7183 14.1479C40.9056 14.1479 41.0933 14.0766 41.2359 13.9337L41.4214 13.7486C41.5376 13.7852 41.6594 13.8047 41.7829 13.8047C41.7956 13.8047 41.8081 13.8043 41.8207 13.8039C41.9864 13.7985 42.1493 13.7592 42.2992 13.6886C42.4492 13.6179 42.5831 13.5174 42.6928 13.393L43.4701 12.5103L44.3037 13.3438C44.3717 13.412 44.4524 13.466 44.5413 13.5029C44.6302 13.5398 44.7256 13.5587 44.8218 13.5587C45.0091 13.5587 45.1968 13.4869 45.3398 13.3438C45.4078 13.2758 45.4618 13.1951 45.4986 13.1063C45.5354 13.0174 45.5543 12.9222 45.5543 12.826C45.5543 12.7298 45.5354 12.6346 45.4986 12.5457C45.4618 12.4569 45.4078 12.3762 45.3398 12.3082L44.4404 11.4087L45.6637 10.0193L46.5342 10.8899C46.6022 10.958 46.6829 11.012 46.7718 11.0488C46.8607 11.0855 46.956 11.1044 47.0522 11.1043C47.197 11.1042 47.3386 11.0613 47.4591 10.9808C47.5795 10.9003 47.6734 10.7859 47.7289 10.6521C47.7843 10.5182 47.7988 10.3709 47.7706 10.2289C47.7424 10.0868 47.6726 9.95624 47.5702 9.85378L46.6337 8.91764L47.848 7.53903L48.4785 8.16999C48.5465 8.23808 48.6273 8.29206 48.7162 8.32885C48.8051 8.36563 48.9004 8.38449 48.9966 8.38434C49.1415 8.38431 49.2831 8.34134 49.4035 8.26085C49.524 8.18036 49.6178 8.06597 49.6733 7.93213C49.7287 7.7983 49.7433 7.65103 49.715 7.50894C49.6868 7.36685 49.6171 7.23632 49.5147 7.13385L48.8177 6.43737L49.6966 5.43942C50.1185 4.96032 50.0955 4.23132 49.6443 3.77965L46.2191 0.354557C45.7674 -0.0971027 45.0384 -0.120052 44.5593 0.301823L43.561 1.18122L42.8637 0.484245C42.7263 0.346949 42.5399 0.269873 42.3456 0.269974C42.1514 0.270075 41.9651 0.347343 41.8278 0.484782C41.6905 0.622221 41.6134 0.808571 41.6135 1.00284C41.6136 1.1971 41.6909 1.38337 41.8283 1.52067L42.4593 2.15124L41.0811 3.36471L40.1362 2.42018C40.0682 2.35216 39.9874 2.2982 39.8986 2.26138C39.8097 2.22457 39.7145 2.20562 39.6183 2.20562C39.5222 2.20562 39.4269 2.22457 39.3381 2.26138C39.2492 2.2982 39.1685 2.35216 39.1005 2.42018C39.0325 2.48817 38.9785 2.5689 38.9417 2.65776C38.9049 2.74662 38.8859 2.84187 38.8859 2.93805C38.8859 3.03424 38.9049 3.12948 38.9417 3.21834C38.9785 3.3072 39.0325 3.38793 39.1005 3.45592L39.9798 4.33483L38.5902 5.55846L37.6909 4.65944C37.623 4.59142 37.5422 4.53746 37.4534 4.50064C37.3645 4.46382 37.2693 4.44488 37.1731 4.44488C37.0769 4.44488 36.9817 4.46382 36.8929 4.50064C36.804 4.53746 36.7233 4.59142 36.6553 4.65944C36.5873 4.72743 36.5333 4.80816 36.4965 4.897C36.4597 4.98585 36.4407 5.08109 36.4407 5.17726C36.4407 5.27344 36.4597 5.36867 36.4965 5.45752C36.5333 5.54637 36.5873 5.6271 36.6553 5.69509L37.4888 6.52858L36.6057 7.30602C36.4815 7.41582 36.3811 7.54979 36.3105 7.69974C36.24 7.84969 36.2007 8.01246 36.1952 8.17809C36.1914 8.30884 36.2088 8.43934 36.2467 8.56452L29.1815 15.6301C25.0639 12.9842 20.9173 12.9686 18.2558 15.6305C17.5707 16.3141 17.0462 16.9816 16.6522 17.671C16.6044 17.7544 16.5735 17.8465 16.5614 17.9419C16.5492 18.0373 16.5559 18.1342 16.5811 18.227C16.6064 18.3198 16.6497 18.4067 16.7085 18.4828C16.7674 18.5589 16.8407 18.6226 16.9241 18.6704C17.0076 18.7182 17.0997 18.749 17.1952 18.7612C17.2906 18.7734 17.3875 18.7666 17.4803 18.7413C17.5732 18.716 17.6601 18.6727 17.7361 18.6137C17.8122 18.5548 17.8759 18.4815 17.9236 18.3979C18.2524 17.8236 18.699 17.2575 19.2911 16.6665C22.2025 13.7548 26.1911 15.5337 28.1168 16.6948L20.2413 24.5706C20.1018 24.5597 19.962 24.554 19.8221 24.5535C18.3226 24.5535 16.9123 25.1375 15.8518 26.1983C14.7909 27.2589 14.2069 28.6691 14.2069 30.169C14.2069 31.6689 14.7908 33.0793 15.8518 34.1397C16.9123 35.2003 18.3226 35.7846 19.8221 35.7846C21.3221 35.7846 22.7323 35.2003 23.7928 34.1398C24.8532 33.0794 25.4373 31.669 25.4373 30.1691C25.4373 30.0283 25.4305 29.8886 25.4202 29.7499L33.2864 21.8836C34.4355 23.8195 36.1689 27.8406 33.1229 30.8866C32.6412 31.3688 32.0931 31.7796 31.4951 32.1065C28.1649 33.9281 25.9619 36.926 25.2924 40.5481C25.0136 42.0602 24.4307 43.4274 23.5594 44.6123C23.3198 44.9384 23.3897 45.3969 23.7155 45.6365C23.841 45.729 23.9928 45.7789 24.1488 45.7788C24.2637 45.779 24.3771 45.752 24.4798 45.7001C24.5824 45.6482 24.6713 45.5729 24.7393 45.4801C25.7429 44.1152 26.4136 42.5455 26.7328 40.8139C27.3207 37.6337 29.2616 34.9977 32.1982 33.3914C32.9184 32.9975 33.5787 32.5027 34.1589 31.9219H34.159ZM45.35 1.55729L48.441 4.64831L41.7702 12.224L37.7751 8.22809L45.35 1.55729ZM22.7567 33.1037C21.9728 33.8877 20.9306 34.3195 19.8221 34.3195C18.7135 34.3195 17.6713 33.8877 16.8874 33.1037C16.1034 32.3198 15.6716 31.2776 15.6716 30.1691C15.6716 29.0601 16.1034 28.0179 16.8874 27.2341C17.6709 26.4501 18.7135 26.0182 19.822 26.0182C20.9306 26.0182 21.9728 26.4501 22.7567 27.2341C23.5403 28.0179 23.9721 29.0601 23.9721 30.1691C23.9721 31.2776 23.5406 32.3198 22.7567 33.1037ZM6.23079 32.6963C5.24241 33.6846 5.24241 35.2933 6.23079 36.2817L13.7095 43.7608C14.2038 44.2549 14.8531 44.502 15.502 44.502C16.1513 44.502 16.8005 44.2549 17.2949 43.7604C18.2832 42.7721 18.2832 41.1637 17.2949 40.175L9.81624 32.6959C9.33743 32.2172 8.70081 31.9536 8.02366 31.9536C7.34651 31.9536 6.70999 32.2175 6.23079 32.6963ZM16.2588 41.2111C16.6762 41.6284 16.6762 42.3074 16.2588 42.7248C15.8418 43.1421 15.1629 43.1424 14.7451 42.7248L7.26682 35.2461C6.84954 34.8287 6.84954 34.1494 7.26682 33.732C7.36599 33.6323 7.48394 33.5533 7.61385 33.4994C7.74375 33.4456 7.88304 33.4181 8.02366 33.4184C8.3094 33.4184 8.57835 33.5298 8.78049 33.7319L16.2588 41.2111Z" fill="#004F44"/>
<path d="M36.8161 15.4622C36.9123 15.4624 37.0076 15.4435 37.0965 15.4067C37.1854 15.3699 37.2662 15.316 37.3341 15.2479C37.6199 14.9617 37.6199 14.4979 37.3341 14.2121L35.7716 12.6492C35.6341 12.512 35.4478 12.4349 35.2536 12.4349C35.0593 12.4349 34.873 12.512 34.7355 12.6492C34.6675 12.7173 34.6135 12.798 34.5767 12.8869C34.5399 12.9758 34.5209 13.0711 34.5209 13.1673C34.5209 13.2635 34.5399 13.3588 34.5767 13.4477C34.6135 13.5366 34.6675 13.6173 34.7355 13.6854L36.298 15.2479C36.366 15.316 36.4467 15.3699 36.5357 15.4067C36.6246 15.4435 36.7199 15.4624 36.8161 15.4622ZM34.6512 17.6271C34.7961 17.6272 34.9377 17.5843 35.0582 17.5039C35.1787 17.4234 35.2727 17.3091 35.3281 17.1752C35.3836 17.0414 35.3981 16.8941 35.3698 16.7521C35.3416 16.61 35.2718 16.4795 35.1693 16.3771L33.6068 14.8141C33.4694 14.6768 33.2831 14.5997 33.0889 14.5997C32.8947 14.5997 32.7085 14.6768 32.5711 14.8141C32.503 14.8821 32.449 14.9629 32.4122 15.0518C32.3754 15.1407 32.3564 15.2359 32.3564 15.3321C32.3564 15.4284 32.3754 15.5236 32.4122 15.6125C32.449 15.7014 32.503 15.7822 32.5711 15.8502L34.1336 17.4127C34.2015 17.4808 34.2821 17.5348 34.371 17.5716C34.4598 17.6084 34.5551 17.6272 34.6512 17.6271ZM32.4868 19.7919C32.6316 19.7918 32.7731 19.7487 32.8935 19.6682C33.0139 19.5877 33.1077 19.4733 33.1631 19.3395C33.2185 19.2057 33.2329 19.0584 33.2047 18.9164C33.1764 18.7743 33.1067 18.6439 33.0044 18.5414L31.4419 16.9789C31.3739 16.9109 31.2931 16.8569 31.2043 16.8201C31.1154 16.7833 31.0202 16.7644 30.924 16.7644C30.8279 16.7644 30.7326 16.7833 30.6438 16.8201C30.5549 16.8569 30.4742 16.9109 30.4062 16.9789C30.3382 17.0469 30.2842 17.1276 30.2474 17.2165C30.2105 17.3054 30.1916 17.4006 30.1916 17.4968C30.1916 17.593 30.2105 17.6882 30.2474 17.7771C30.2842 17.8659 30.3382 17.9467 30.4062 18.0147L31.9687 19.5776C32.0367 19.6457 32.1174 19.6997 32.2063 19.7365C32.2952 19.7733 32.3906 19.7921 32.4868 19.7919ZM30.3219 21.9568C30.4668 21.9567 30.6084 21.9137 30.7288 21.8333C30.8493 21.7528 30.9432 21.6384 30.9986 21.5045C31.0541 21.3707 31.0686 21.2234 31.0404 21.0813C31.0121 20.9393 30.9424 20.8087 30.84 20.7063L29.2775 19.1438C29.2095 19.0757 29.1288 19.0218 29.0399 18.9849C28.9511 18.9481 28.8558 18.9292 28.7596 18.9292C28.6634 18.9292 28.5682 18.9481 28.4793 18.9849C28.3905 19.0218 28.3097 19.0757 28.2418 19.1438C28.1737 19.2118 28.1197 19.2925 28.0829 19.3813C28.0461 19.4702 28.0271 19.5654 28.0271 19.6616C28.0271 19.7578 28.0461 19.8531 28.0829 19.9419C28.1197 20.0308 28.1737 20.1115 28.2418 20.1795L29.8043 21.7424C29.8722 21.8105 29.9529 21.8645 30.0417 21.9013C30.1305 21.938 30.2258 21.9569 30.3219 21.9568ZM26.0769 21.3086C26.0089 21.3766 25.9549 21.4574 25.9181 21.5463C25.8813 21.6352 25.8623 21.7305 25.8623 21.8267C25.8623 21.9229 25.8813 22.0182 25.9181 22.1071C25.9549 22.1959 26.0089 22.2767 26.0769 22.3447L27.6394 23.9072C27.7074 23.9754 27.7881 24.0294 27.877 24.0662C27.9659 24.1029 28.0613 24.1218 28.1575 24.1216C28.3023 24.1215 28.4438 24.0784 28.5642 23.9979C28.6846 23.9174 28.7784 23.803 28.8338 23.6692C28.8892 23.5353 28.9036 23.3881 28.8754 23.2461C28.8471 23.104 28.7774 22.9735 28.6751 22.8711L27.1126 21.3086C27.0446 21.2406 26.9638 21.1866 26.875 21.1498C26.7861 21.113 26.6909 21.094 26.5947 21.094C26.4986 21.094 26.4033 21.113 26.3145 21.1498C26.2256 21.1866 26.1449 21.2406 26.0769 21.3086ZM40.7834 7.47462C40.7154 7.4066 40.6346 7.35264 40.5458 7.31582C40.4569 7.27901 40.3617 7.26006 40.2655 7.26006C40.1694 7.26006 40.0741 7.27901 39.9853 7.31582C39.8964 7.35264 39.8157 7.4066 39.7477 7.47462C39.6797 7.54261 39.6257 7.62334 39.5889 7.71219C39.5521 7.80104 39.5331 7.89627 39.5331 7.99244C39.5331 8.08862 39.5521 8.18385 39.5889 8.2727C39.6257 8.36155 39.6797 8.44228 39.7477 8.51027C39.8157 8.57829 39.8964 8.63225 39.9853 8.66907C40.0741 8.70588 40.1694 8.72483 40.2655 8.72483C40.3617 8.72483 40.4569 8.70588 40.5458 8.66907C40.6346 8.63225 40.7154 8.57829 40.7834 8.51027C40.8514 8.44228 40.9053 8.36155 40.9422 8.2727C40.979 8.18385 40.9979 8.08862 40.9979 7.99244C40.9979 7.89627 40.979 7.80104 40.9422 7.71219C40.9053 7.62334 40.8514 7.54261 40.7834 7.47462ZM42.5401 9.21603C42.4721 9.14799 42.3913 9.09402 42.3024 9.0572C42.2135 9.02038 42.1182 9.00142 42.022 9.00142C41.9258 9.00142 41.8305 9.02038 41.7417 9.0572C41.6528 9.09402 41.572 9.14799 41.504 9.21603C41.2182 9.50177 41.2182 9.96564 41.504 10.2517C41.572 10.3197 41.6528 10.3737 41.7417 10.4105C41.8305 10.4473 41.9258 10.4663 42.022 10.4663C42.1182 10.4663 42.2135 10.4473 42.3024 10.4105C42.3913 10.3737 42.4721 10.3197 42.5401 10.2517C42.8257 9.96554 42.8257 9.50167 42.5401 9.21603ZM42.9814 5.27316C42.9134 5.20512 42.8327 5.15115 42.7438 5.11432C42.655 5.0775 42.5597 5.05854 42.4635 5.05854C42.3673 5.05854 42.2721 5.0775 42.1832 5.11432C42.0944 5.15115 42.0137 5.20512 41.9457 5.27316C41.8776 5.34115 41.8237 5.42187 41.7869 5.51072C41.75 5.59957 41.7311 5.69481 41.7311 5.79098C41.7311 5.88716 41.75 5.98239 41.7869 6.07124C41.8237 6.16009 41.8776 6.24081 41.9457 6.3088C42.0137 6.37684 42.0944 6.43081 42.1832 6.46764C42.2721 6.50446 42.3673 6.52342 42.4635 6.52342C42.5597 6.52342 42.655 6.50446 42.7438 6.46764C42.8327 6.43081 42.9134 6.37684 42.9814 6.3088C43.0494 6.24081 43.1034 6.16009 43.1402 6.07124C43.177 5.98239 43.196 5.88716 43.196 5.79098C43.196 5.69481 43.177 5.59957 43.1402 5.51072C43.1034 5.42187 43.0494 5.34115 42.9814 5.27316ZM44.7392 7.01652C44.6712 6.94848 44.5905 6.89451 44.5016 6.85768C44.4128 6.82086 44.3175 6.8019 44.2213 6.8019C44.1252 6.8019 44.0299 6.82086 43.9411 6.85768C43.8522 6.89451 43.7715 6.94848 43.7035 7.01652C43.6355 7.08451 43.5815 7.16523 43.5447 7.25408C43.5079 7.34293 43.4889 7.43816 43.4889 7.53434C43.4889 7.63052 43.5079 7.72575 43.5447 7.8146C43.5815 7.90345 43.6355 7.98417 43.7035 8.05216C43.7715 8.1202 43.8522 8.17417 43.9411 8.211C44.0299 8.24782 44.1252 8.26678 44.2213 8.26678C44.3175 8.26678 44.4128 8.24782 44.5016 8.211C44.5905 8.17417 44.6712 8.1202 44.7392 8.05216C44.8072 7.98417 44.8612 7.90345 44.898 7.8146C44.9348 7.72575 44.9538 7.63052 44.9538 7.53434C44.9538 7.43816 44.9348 7.34293 44.898 7.25408C44.8612 7.16523 44.8072 7.08451 44.7392 7.01652ZM45.1805 3.07394C45.1125 3.00592 45.0318 2.95196 44.943 2.91514C44.8541 2.87832 44.7589 2.85938 44.6627 2.85938C44.5665 2.85938 44.4713 2.87832 44.3824 2.91514C44.2936 2.95196 44.2129 3.00592 44.1449 3.07394C44.0768 3.14193 44.0229 3.22266 43.986 3.31152C43.9492 3.40038 43.9303 3.49562 43.9303 3.59181C43.9303 3.688 43.9492 3.78324 43.986 3.8721C44.0229 3.96096 44.0768 4.04169 44.1449 4.10968C44.2129 4.1777 44.2936 4.23167 44.3824 4.26848C44.4713 4.3053 44.5665 4.32425 44.6627 4.32425C44.7589 4.32425 44.8541 4.3053 44.943 4.26848C45.0318 4.23167 45.1125 4.1777 45.1805 4.10968C45.2486 4.04169 45.3025 3.96096 45.3394 3.8721C45.3762 3.78324 45.3951 3.688 45.3951 3.59181C45.3951 3.49562 45.3762 3.40038 45.3394 3.31152C45.3025 3.22266 45.2486 3.14193 45.1805 3.07394ZM46.938 4.81691C46.8701 4.74887 46.7893 4.6949 46.7005 4.65807C46.6116 4.62125 46.5164 4.6023 46.4202 4.6023C46.324 4.6023 46.2287 4.62125 46.1399 4.65807C46.051 4.6949 45.9703 4.74887 45.9023 4.81691C45.8343 4.8849 45.7803 4.96563 45.7435 5.05449C45.7066 5.14335 45.6877 5.23859 45.6877 5.33478C45.6877 5.43097 45.7066 5.52621 45.7435 5.61507C45.7803 5.70393 45.8343 5.78466 45.9023 5.85265C45.9703 5.92069 46.051 5.97466 46.1399 6.01149C46.2287 6.04831 46.324 6.06726 46.4202 6.06726C46.5164 6.06726 46.6116 6.04831 46.7005 6.01149C46.7893 5.97466 46.8701 5.92069 46.938 5.85265C47.0061 5.78466 47.0601 5.70393 47.0969 5.61507C47.1337 5.52621 47.1527 5.43097 47.1527 5.33478C47.1527 5.23859 47.1337 5.14335 47.0969 5.05449C47.0601 4.96563 47.0061 4.8849 46.938 4.81691Z" fill="#004F44"/>
</g>
<defs>
<clipPath id="clip0_2054_4417">
<rect width="50" height="50" fill="white"/>
</clipPath>
</defs>
</svg>
