<svg width="50" height="50" viewBox="0 0 50 50" fill="none" xmlns="http://www.w3.org/2000/svg">
<path d="M25.4994 8.51257C25.0471 8.35622 24.534 8.36657 24.2939 8.68572L19.2057 15.36C19.1761 15.4034 19.1465 15.4468 19.1378 15.4707C18.999 15.8516 19.4781 16.3123 19.906 16.4602C20.175 16.5532 20.4131 16.5417 20.5566 16.3366L21.5982 14.9134L24.3976 15.8812L24.2851 17.6256C24.2638 17.8728 24.4412 18.028 24.7102 18.121C25.138 18.2688 25.8123 18.1936 25.9468 17.8245C25.9599 17.7887 25.9607 17.7488 25.9658 17.6969L26.3353 9.39148C26.3555 8.99626 25.9639 8.67321 25.4994 8.51257ZM24.4978 14.5482L22.3707 13.8129L24.7661 10.525L24.4978 14.5482ZM16.3202 39.0651L16.2511 38.8085C15.9215 37.5864 15.2661 37.2446 14.4217 37.1471C15.0108 36.696 15.2344 35.9334 14.9641 34.9312C14.4962 33.1959 13.1672 33.0917 11.8624 33.4256L9.44104 34.045C9.07721 34.1381 8.77203 34.399 8.86106 34.7291L11.0029 42.6725C11.0721 42.9292 11.4107 43.0907 11.8499 42.9784L14.5096 42.2979C15.9273 41.9352 16.8344 40.9717 16.3202 39.0651ZM11.2802 37.2846L10.72 35.2071L12.1125 34.8509C12.7524 34.6872 13.2342 34.982 13.4056 35.6175C13.5737 36.2407 13.3628 36.7519 12.6853 36.9253L11.2802 37.2846ZM13.7952 40.9914L12.3776 41.3541L11.6165 38.5311L13.0342 38.1684C13.7993 37.9726 14.3432 38.1993 14.6003 39.1525L14.653 39.348C14.9034 40.2768 14.5606 40.7956 13.7952 40.9914ZM40.8924 38.5448C40.4514 38.5448 40.0881 38.6712 40.0622 39.0629C40.0233 39.5935 39.9195 40.4148 38.7391 40.4148C37.8441 40.4148 37.3512 39.9472 37.3512 38.9617V35.4365C37.3513 34.451 37.8442 33.9835 38.7132 33.9835C39.9456 33.9835 40.0363 34.8427 40.0623 35.2344C40.0752 35.6134 40.4255 35.7524 40.9054 35.7524C41.4762 35.7524 41.7486 35.6008 41.7486 34.9437C41.7486 33.478 40.4644 32.543 38.6613 32.543C37.0269 32.543 35.6649 33.3264 35.6649 35.4366V38.9618C35.6649 41.0719 37.0139 41.8552 38.6484 41.8552C40.4644 41.8552 41.7486 40.8824 41.7486 39.3535C41.7486 38.7092 41.4762 38.5448 40.8924 38.5448Z" fill="#004F44"/>
<path d="M32.7758 3.55531L20.9737 0.216537C18.018 -0.620182 14.9153 1.04232 14.0569 3.92132L12.9443 7.65296C12.8887 7.83938 12.9114 8.03967 13.0075 8.20977C13.1035 8.37987 13.2649 8.50585 13.4563 8.55999C13.5511 8.58683 13.6503 8.59521 13.7484 8.58467C13.8465 8.57413 13.9415 8.54486 14.028 8.49855C14.1144 8.45223 14.1907 8.38978 14.2524 8.31475C14.3141 8.23972 14.36 8.15358 14.3875 8.06126L15.5002 4.32962C15.8041 3.31058 16.4971 2.46771 17.4518 1.95638C18.4064 1.44505 19.5083 1.3263 20.5547 1.6223L32.3566 4.96097C34.5164 5.5721 35.7632 7.7807 35.136 9.88451L31.7084 21.3806C31.0811 23.4843 28.8135 24.6989 26.6538 24.0879L14.8518 20.7492C13.8055 20.4532 12.9402 19.778 12.4153 18.8481C11.8903 17.9182 11.7685 16.8448 12.0724 15.8257L13.3972 11.3826C13.4527 11.1962 13.43 10.996 13.334 10.8259C13.2379 10.6558 13.0765 10.5298 12.8851 10.4756C12.6938 10.4215 12.4882 10.4437 12.3136 10.5372C12.139 10.6307 12.0096 10.788 11.954 10.9743L10.6293 15.4174C10.2134 16.812 10.3801 18.2809 11.0985 19.5535C11.8168 20.826 13.001 21.7498 14.4327 22.1549L26.2347 25.4937C26.7397 25.637 27.2631 25.7098 27.7891 25.71C30.2087 25.7099 32.4436 24.1633 33.1516 21.7889L36.5792 10.2928C37.4375 7.4139 35.7314 4.39144 32.7758 3.55531ZM25.1865 41.7822L23.2241 29.9647C22.9861 28.531 22.189 27.2736 20.9799 26.4239C19.7709 25.5741 18.2943 25.2337 16.8228 25.4658L4.69079 27.3773C1.65256 27.856 -0.41931 30.6531 0.072141 33.6124L0.726206 37.5515C0.792474 37.9505 1.17866 38.2226 1.588 38.1572C1.78472 38.1262 1.96073 38.0203 2.07734 37.8629C2.19394 37.7055 2.24158 37.5094 2.20978 37.3178L1.55572 33.3787C1.1966 31.2161 2.71066 29.1721 4.93091 28.8223L17.0629 26.9108C18.1381 26.7415 19.2172 26.99 20.1008 27.611C20.9844 28.2319 21.5666 29.1508 21.7406 30.1984L23.703 42.0159C24.0621 44.1785 22.548 46.2226 20.3278 46.5724L8.19581 48.4839C7.12028 48.653 6.04143 48.4047 5.15788 47.7837C4.27444 47.1628 3.69205 46.2439 3.51811 45.1963L2.77011 40.6916C2.70384 40.2926 2.31776 40.0206 1.90831 40.086C1.7116 40.117 1.53558 40.2228 1.41897 40.3802C1.30237 40.5376 1.25473 40.7337 1.28653 40.9253L2.03454 45.43C2.27254 46.8637 3.06957 48.1211 4.27855 48.9708C5.23989 49.6464 6.37007 50 7.53263 50C7.83229 50 8.13416 49.9765 8.43582 49.9289L20.5678 48.0174C23.606 47.5387 25.6779 44.7415 25.1865 41.7822ZM44.4184 25.8638H32.1286C29.0509 25.8638 26.547 28.3028 26.547 31.3006V35.2953C26.547 35.4895 26.6262 35.6756 26.7671 35.8129C26.908 35.9502 27.0991 36.0273 27.2984 36.0273C27.4977 36.0273 27.6888 35.9502 27.8298 35.8129C27.9707 35.6756 28.0498 35.4895 28.0498 35.2953V31.3006C28.0498 29.11 29.8796 27.3277 32.1286 27.3277H44.4184C46.6674 27.3277 48.4972 29.11 48.4972 31.3006V43.2717C48.4972 45.4624 46.6674 47.2448 44.4184 47.2448H32.1286C29.8796 47.2448 28.0498 45.4624 28.0498 43.2717V38.7111C28.0498 38.5169 27.9707 38.3308 27.8298 38.1935C27.6888 38.0562 27.4977 37.9791 27.2984 37.9791C27.0991 37.9791 26.908 38.0562 26.7671 38.1935C26.6262 38.3308 26.547 38.5169 26.547 38.7111V43.2717C26.547 46.2696 29.0509 48.7086 32.1286 48.7086H44.4184C47.4961 48.7086 50 46.2696 50 43.2717V31.3006C50 28.3028 47.4961 25.8638 44.4184 25.8638Z" fill="#004F44"/>
</svg>
