<svg width="44" height="44" viewBox="0 0 44 44" fill="none" xmlns="http://www.w3.org/2000/svg">
<g clip-path="url(#clip0_2047_2859)">
<path d="M32.5981 21.2867C29.4498 21.2867 26.5969 22.5749 24.5379 24.6513C25.3499 23.7499 25.8451 22.5577 25.8451 21.2519C25.8451 21.2239 25.8434 21.1963 25.8429 21.1685C25.8433 21.1545 25.8451 21.1407 25.8451 21.1266V1.28968C25.8451 0.43538 25.0279 -0.182167 24.2069 0.0488329L8.57661 4.44643C8.02068 4.60283 7.63671 5.10986 7.63671 5.68728V18.2797C6.89628 17.8583 6.04111 17.6162 5.13 17.6162C2.32629 17.6162 0.045166 19.8972 0.045166 22.701C0.045166 25.5048 2.32621 27.7858 5.13 27.7858C7.9338 27.7858 10.2148 25.5048 10.2148 22.701C10.2148 22.6731 10.2132 22.6455 10.2127 22.6177C10.2131 22.6036 10.2148 22.5899 10.2148 22.5758V14.7009L23.267 11.0286V16.8305C22.5266 16.4091 21.6714 16.167 20.7603 16.167C17.9565 16.167 15.6755 18.4481 15.6755 21.2519C15.6755 24.0556 17.9565 26.3367 20.7603 26.3367C22.1424 26.3367 23.3969 25.7816 24.3143 24.8837C22.4099 26.9156 21.2416 29.6455 21.2416 32.6435C21.2416 38.9056 26.3361 44.0001 32.5982 44.0001C38.8603 44.0001 43.9548 38.9056 43.9548 32.6435C43.9548 26.3813 38.8602 21.2867 32.5981 21.2867ZM5.12992 25.2077C3.7477 25.2077 2.62321 24.0832 2.62321 22.701C2.62321 21.3188 3.7477 20.1943 5.12992 20.1943C6.51213 20.1943 7.63663 21.3188 7.63663 22.701C7.63671 24.0832 6.51222 25.2077 5.12992 25.2077ZM20.7602 23.7586C19.378 23.7586 18.2535 22.6341 18.2535 21.2519C18.2535 19.8696 19.378 18.7451 20.7602 18.7451C22.1424 18.7451 23.2669 19.8695 23.2669 21.2519C23.2669 22.6342 22.1424 23.7586 20.7602 23.7586ZM23.2669 8.3504L10.2148 12.0227V6.66379L23.2669 2.9915V8.3504ZM32.5981 41.4219C27.7576 41.4219 23.8196 37.4838 23.8196 32.6434C23.8196 27.8029 27.7577 23.8648 32.5981 23.8648C37.4385 23.8648 41.3766 27.8029 41.3766 32.6434C41.3767 37.4839 37.4386 41.4219 32.5981 41.4219Z" fill="#004F44"/>
<path d="M38.1014 31.5282L30.5669 27.1781C29.7079 26.6823 28.6333 27.3041 28.6333 28.2945V36.9945C28.6333 37.9852 29.7091 38.6062 30.5669 38.1109L38.1014 33.7609C38.9604 33.265 38.9589 32.0232 38.1014 31.5282ZM31.2114 34.7619V30.5271L34.8788 32.6445L31.2114 34.7619Z" fill="#004F44"/>
</g>
<defs>
<clipPath id="clip0_2047_2859">
<rect width="44" height="44" fill="white"/>
</clipPath>
</defs>
</svg>
