<svg width="44" height="44" viewBox="0 0 44 44" fill="none" xmlns="http://www.w3.org/2000/svg">
<path d="M43.8639 35.1735L40.5625 28.5708V6.53125C40.5625 3.92502 38.4422 1.80469 35.8359 1.80469H8.16406C5.55784 1.80469 3.4375 3.92502 3.4375 6.53125V28.5708L0.136125 35.1735C0.0465781 35.3525 0 35.5499 0 35.75V37.4688C0 40.075 2.12034 42.1953 4.72656 42.1953H39.2734C41.8797 42.1953 44 40.075 44 37.4688V35.75C44 35.5499 43.9534 35.3525 43.8639 35.1735ZM6.01562 6.53125C6.01562 5.3466 6.97941 4.38281 8.16406 4.38281H35.8359C37.0206 4.38281 37.9844 5.3466 37.9844 6.53125V27.5859H6.01562V6.53125ZM5.52329 30.1641H38.4768L40.6252 34.4609H3.37485L5.52329 30.1641ZM41.4219 37.4688C41.4219 38.6534 40.4581 39.6172 39.2734 39.6172H4.72656C3.54191 39.6172 2.57812 38.6534 2.57812 37.4688V37.0391H41.4219V37.4688Z" fill="#004F44"/>
<path d="M30.2034 7.78071C28.5152 6.09272 25.2048 7.37861 21.9999 9.7479C18.7949 7.37861 15.4845 6.09272 13.7964 7.78079C13.0374 8.53979 12.4517 10.0828 13.972 13.1233C14.4288 14.037 15.0367 15.0046 15.7613 15.9843C15.0367 16.964 14.4288 17.9316 13.972 18.8453C12.4517 21.8858 13.0374 23.4288 13.7964 24.1879C14.3289 24.7204 15.0226 24.9569 15.8239 24.9569C17.5624 24.9569 19.8059 23.8426 21.9999 22.2207C24.1939 23.8427 26.4374 24.9569 28.1759 24.9569C28.9769 24.9569 29.6709 24.7204 30.2034 24.1879C30.9624 23.4289 31.5481 21.8859 30.0278 18.8454C29.571 17.9316 28.9631 16.964 28.2384 15.9843C28.9631 15.0046 29.571 14.037 30.0278 13.1233C31.5481 10.0828 30.9624 8.53979 30.2034 7.78071ZM15.6245 9.60894C15.8103 9.54767 16.6351 9.53547 18.2827 10.4159C18.8143 10.6999 19.3685 11.0433 19.9336 11.4354C19.497 11.826 19.0699 12.2299 18.6577 12.6422C18.2381 13.0617 17.8356 13.4882 17.4506 13.9178C17.0586 13.3528 16.7153 12.7986 16.4313 12.2672C15.5511 10.6196 15.5633 9.795 15.6245 9.60894ZM18.2827 21.5527C16.6353 22.4331 15.8106 22.4211 15.6245 22.3597C15.5632 22.1735 15.5511 21.349 16.4314 19.7015C16.7154 19.1701 17.0587 18.6159 17.4507 18.0509C17.8356 18.4804 18.2381 18.9069 18.6578 19.3265C19.07 19.7387 19.4973 20.1424 19.934 20.5331C19.3687 20.9252 18.8144 21.2687 18.2827 21.5527ZM21.9999 18.9186C21.4885 18.4752 20.9793 18.002 20.4807 17.5035C19.9821 17.0049 19.509 16.4957 19.0655 15.9843C19.5089 15.4729 19.9821 14.9637 20.4807 14.4651C20.9793 13.9665 21.4885 13.4934 21.9999 13.05C22.5113 13.4934 23.0205 13.9666 23.5191 14.4651C24.0177 14.9637 24.4908 15.4729 24.9343 15.9843C24.4909 16.4957 24.0177 17.0049 23.5191 17.5035C23.0205 18.002 22.5113 18.4752 21.9999 18.9186ZM28.3753 22.3597C28.1894 22.4209 27.3647 22.4331 25.7171 21.5527C25.1854 21.2686 24.631 20.9252 24.0658 20.533C24.5025 20.1423 24.9298 19.7387 25.342 19.3264C25.7615 18.9069 26.1641 18.4804 26.5491 18.0508C26.9411 18.6158 27.2844 19.17 27.5684 19.7014C28.4487 21.349 28.4365 22.1736 28.3753 22.3597ZM27.5684 12.2671C27.2844 12.7985 26.9411 13.3527 26.5491 13.9177C26.1642 13.4882 25.7616 13.0617 25.342 12.6421C24.9298 12.2299 24.5027 11.826 24.0661 11.4354C24.6312 11.0432 25.1855 10.6999 25.717 10.4159C27.3645 9.53555 28.1894 9.54775 28.3752 9.60894C28.4365 9.795 28.4487 10.6196 27.5684 12.2671Z" fill="#004F44"/>
</svg>
