<svg width="44" height="44" viewBox="0 0 44 44" fill="none" xmlns="http://www.w3.org/2000/svg">
<g clip-path="url(#clip0_2047_2822)">
<path d="M42.7109 0H37.5547C36.8428 0 36.2656 0.577156 36.2656 1.28906V2.57812H25.6455C25.1133 1.07783 23.6805 0 22 0C20.3195 0 18.8867 1.07783 18.3545 2.57812H7.73438V1.28906C7.73438 0.577156 7.15722 0 6.44531 0H1.28906C0.577156 0 0 0.577156 0 1.28906V6.44531C0 7.15722 0.577156 7.73438 1.28906 7.73438H6.44531C7.15722 7.73438 7.73438 7.15722 7.73438 6.44531V5.13906H13.0949C8.4443 8.08448 5.6173 13.0604 5.27725 18.3427C3.75873 18.8648 2.66406 20.3065 2.66406 22C2.66406 24.1324 4.39888 25.8672 6.53125 25.8672C8.66362 25.8672 10.3984 24.1324 10.3984 22C10.3984 20.3345 9.34012 18.9116 7.8607 18.3683C8.31841 12.2971 12.6902 7.06802 18.5364 5.58439C19.1701 6.8573 20.4841 7.73438 22 7.73438C23.5159 7.73438 24.8299 6.8573 25.4636 5.58448C31.3099 7.0681 35.6816 12.2971 36.1393 18.3684C34.6599 18.9116 33.6016 20.3345 33.6016 22C33.6016 24.1324 35.3364 25.8672 37.4688 25.8672C39.6011 25.8672 41.3359 24.1324 41.3359 22C41.3359 20.3065 40.2413 18.8648 38.7228 18.3427C38.382 13.0498 35.5466 8.09591 30.9051 5.15625H36.2656V6.44531C36.2656 7.15722 36.8428 7.73438 37.5547 7.73438H42.7109C43.4228 7.73438 44 7.15722 44 6.44531V1.28906C44 0.577156 43.4228 0 42.7109 0ZM5.15625 5.15625H2.57812V2.57812H5.15625V5.15625ZM6.53125 23.2891C5.82046 23.2891 5.24219 22.7108 5.24219 22C5.24219 21.2892 5.82046 20.7109 6.53125 20.7109C7.24204 20.7109 7.82031 21.2892 7.82031 22C7.82031 22.7108 7.24204 23.2891 6.53125 23.2891ZM22 5.15625C21.2892 5.15625 20.7109 4.57798 20.7109 3.86719C20.7109 3.1564 21.2892 2.57812 22 2.57812C22.7108 2.57812 23.2891 3.1564 23.2891 3.86719C23.2891 4.57798 22.7108 5.15625 22 5.15625ZM37.4688 20.7109C38.1795 20.7109 38.7578 21.2892 38.7578 22C38.7578 22.7108 38.1795 23.2891 37.4688 23.2891C36.758 23.2891 36.1797 22.7108 36.1797 22C36.1797 21.2892 36.758 20.7109 37.4688 20.7109ZM41.4219 5.15625H38.8438V2.57812H41.4219V5.15625Z" fill="#004F44"/>
<path d="M33.385 26.4403L23.0725 10.9716C23.0721 10.9711 23.0717 10.9706 23.0714 10.97C23.0677 10.9645 23.0636 10.9592 23.0599 10.9538C23.0422 10.9281 23.0235 10.9034 23.0041 10.8792C22.4609 10.2043 21.4265 10.2498 20.9401 10.9538C20.9363 10.9592 20.9323 10.9645 20.9286 10.97C20.9283 10.9706 20.9278 10.971 20.9275 10.9716L10.615 26.4404C10.2741 26.9516 10.3415 27.6324 10.776 28.0669C13.3479 30.6388 14.9848 34.0006 15.4308 37.5975C15.2306 37.7593 15.0373 37.9325 14.8541 38.12C13.6433 39.3586 12.9766 40.9887 12.9766 42.71C12.9766 43.422 13.5537 43.9991 14.2656 43.9991H29.7344C30.4463 43.9991 31.0234 43.422 31.0234 42.71C31.0234 40.9887 30.3566 39.3586 29.146 38.12C28.9626 37.9324 28.7695 37.7592 28.5692 37.5974C29.0151 34.0004 30.652 30.6385 33.2239 28.0669C33.6584 27.6324 33.7259 26.9515 33.385 26.4403ZM22 25.8663C22.7108 25.8663 23.2891 26.4446 23.2891 27.1554C23.2891 27.8661 22.7108 28.4444 22 28.4444C21.2892 28.4444 20.7109 27.8661 20.7109 27.1554C20.7109 26.4446 21.2892 25.8663 22 25.8663ZM15.7745 41.421C16.3108 39.8885 17.7647 38.7569 19.4219 38.7569H24.5781C26.2352 38.7569 27.6891 39.8885 28.2255 41.421H15.7745ZM26.146 36.375C25.639 36.2456 25.1134 36.1788 24.5781 36.1788H19.4219C18.8866 36.1788 18.361 36.2456 17.8539 36.3751C17.2507 32.9007 15.6839 29.653 13.3293 27.0166L20.7109 15.9441V23.51C19.2105 24.0421 18.1328 25.4749 18.1328 27.1554C18.1328 29.2878 19.8676 31.0226 22 31.0226C24.1324 31.0226 25.8672 29.2878 25.8672 27.1554C25.8672 25.4749 24.7894 24.0421 23.2891 23.51V15.9441L30.6707 27.0166C28.3161 29.6527 26.7492 32.9005 26.146 36.375Z" fill="#004F44"/>
</g>
<defs>
<clipPath id="clip0_2047_2822">
<rect width="44" height="44" fill="white"/>
</clipPath>
</defs>
</svg>
