<svg width="44" height="44" viewBox="0 0 44 44" fill="none" xmlns="http://www.w3.org/2000/svg">
<g clip-path="url(#clip0_2047_2793)">
<path d="M40.1328 0.0859375H3.86719C1.73482 0.0859375 0 1.82076 0 3.95312V40.0469C0 42.1792 1.73482 43.9141 3.86719 43.9141H40.1328C42.2652 43.9141 44 42.1792 44 40.0469V3.95312C44 1.82076 42.2652 0.0859375 40.1328 0.0859375ZM3.86719 2.66406H40.1328C40.8436 2.66406 41.4219 3.24234 41.4219 3.95312V10.3984H2.57812V3.95312C2.57812 3.24234 3.1564 2.66406 3.86719 2.66406ZM40.1328 41.3359H3.86719C3.1564 41.3359 2.57812 40.7577 2.57812 40.0469V12.9766H41.4219V40.0469C41.4219 40.7577 40.8436 41.3359 40.1328 41.3359Z" fill="#004F44"/>
<path d="M26.3748 16.9483C25.7205 16.6679 24.9626 16.971 24.6822 17.6253L16.9478 35.6722C16.6673 36.3265 16.9705 37.0844 17.6249 37.3648C18.2794 37.6453 19.0372 37.342 19.3175 36.6878L27.0519 18.6409C27.3324 17.9865 27.0292 17.2287 26.3748 16.9483Z" fill="#004F44"/>
<path d="M15.2721 21.1947C14.8273 20.6388 14.016 20.5487 13.4603 20.9935L7.01499 26.1497C6.37054 26.6651 6.37011 27.6471 7.01499 28.1629L13.4603 33.3191C14.0162 33.764 14.8276 33.6737 15.2721 33.1179C15.7168 32.562 15.6268 31.7507 15.0708 31.3061L9.88375 27.1563L15.0708 23.0066C15.6268 22.5619 15.7168 21.7508 15.2721 21.1947Z" fill="#004F44"/>
<path d="M36.985 26.1498L30.5397 20.9935C29.9837 20.5487 29.1725 20.6388 28.7278 21.1948C28.2831 21.7507 28.3732 22.562 28.9292 23.0066L34.1162 27.1563L28.9292 31.306C28.3732 31.7507 28.2831 32.5619 28.7278 33.1178C29.1732 33.6744 29.9845 33.7634 30.5397 33.3191L36.985 28.1628C37.6294 27.6475 37.6299 26.6656 36.985 26.1498Z" fill="#004F44"/>
<path d="M6.53125 7.82031C7.24318 7.82031 7.82031 7.24318 7.82031 6.53125C7.82031 5.81932 7.24318 5.24219 6.53125 5.24219C5.81932 5.24219 5.24219 5.81932 5.24219 6.53125C5.24219 7.24318 5.81932 7.82031 6.53125 7.82031Z" fill="#004F44"/>
<path d="M11.6875 7.82031C12.3994 7.82031 12.9766 7.24318 12.9766 6.53125C12.9766 5.81932 12.3994 5.24219 11.6875 5.24219C10.9756 5.24219 10.3984 5.81932 10.3984 6.53125C10.3984 7.24318 10.9756 7.82031 11.6875 7.82031Z" fill="#004F44"/>
<path d="M16.8438 7.82031C17.5557 7.82031 18.1328 7.24318 18.1328 6.53125C18.1328 5.81932 17.5557 5.24219 16.8438 5.24219C16.1318 5.24219 15.5547 5.81932 15.5547 6.53125C15.5547 7.24318 16.1318 7.82031 16.8438 7.82031Z" fill="#004F44"/>
<path d="M29.7344 7.82031H37.4688C38.1807 7.82031 38.7578 7.24316 38.7578 6.53125C38.7578 5.81934 38.1807 5.24219 37.4688 5.24219H29.7344C29.0225 5.24219 28.4453 5.81934 28.4453 6.53125C28.4453 7.24316 29.0225 7.82031 29.7344 7.82031Z" fill="#004F44"/>
</g>
<defs>
<clipPath id="clip0_2047_2793">
<rect width="44" height="44" fill="white"/>
</clipPath>
</defs>
</svg>
