<svg width="44" height="44" viewBox="0 0 44 44" fill="none" xmlns="http://www.w3.org/2000/svg">
<g clip-path="url(#clip0_684_3470)">
<path d="M36.4755 32.4203C33.7253 31.9689 30.9207 31.5984 28.4453 31.3576V29.0636C31.269 27.1699 33.2192 24.0703 33.5512 20.5076C35.078 19.99 36.1797 18.5431 36.1797 16.8438C36.1797 15.1632 35.1021 13.7295 33.6016 13.1974V11.6875C33.6016 5.24296 28.3971 0 22 0C15.6029 0 10.3984 5.24296 10.3984 11.6875V13.1974C8.89788 13.7295 7.82031 15.1631 7.82031 16.8438C7.82031 18.5431 8.92203 19.99 10.4488 20.5075C10.7808 24.0702 12.731 27.1698 15.5547 29.0635V31.3576C13.0791 31.5984 10.2748 31.9688 7.52443 32.4202C3.20452 33.1292 0 36.972 0 41.4044V42.7109C0 43.4228 0.577156 44 1.28906 44H42.7109C43.4228 44 44 43.4228 44 42.7109V41.4044C44 36.9824 40.8063 33.131 36.4755 32.4203ZM20.7109 2.67145V3.86719C20.7109 4.57909 21.2881 5.15625 22 5.15625C22.7119 5.15625 23.2891 4.57909 23.2891 3.86719V2.67145C27.2129 3.24062 30.3294 6.3672 30.9217 10.3192C29.5401 10.1485 28.6862 9.7222 27.7327 9.2455C26.3967 8.57742 24.8824 7.82031 22 7.82031C19.1176 7.82031 17.6033 8.57742 16.2673 9.2455C15.3138 9.7222 14.46 10.1485 13.0783 10.3192C13.6706 6.36728 16.7871 3.24062 20.7109 2.67145ZM11.6875 18.1328C10.9767 18.1328 10.3984 17.5545 10.3984 16.8438C10.3984 16.133 10.9767 15.5547 11.6875 15.5547C12.3994 15.5547 12.9766 14.9775 12.9766 14.2656V12.9211C15.052 12.7352 16.2991 12.112 17.4202 11.5515C18.6575 10.9327 19.7262 10.3984 22 10.3984C24.2738 10.3984 25.3425 10.9327 26.5798 11.5514C27.7009 12.1119 28.948 12.7351 31.0234 12.921V14.2656C31.0234 14.9775 31.6006 15.5547 32.3125 15.5547C33.0233 15.5547 33.6016 16.133 33.6016 16.8438C33.6016 17.5545 33.0233 18.1328 32.3125 18.1328C31.6006 18.1328 31.0234 18.71 31.0234 19.4219C31.0234 24.3974 26.9755 28.4453 22 28.4453C20.8945 28.4453 19.835 28.2451 18.8553 27.8796C19.9672 27.1996 20.7109 25.9742 20.7109 24.5781C20.7109 24.1263 20.6323 23.6925 20.4892 23.2891H22C22.7119 23.2891 23.2891 22.7119 23.2891 22C23.2891 21.2881 22.7119 20.7109 22 20.7109H16.8438C15.4477 20.7109 14.2222 21.4546 13.5423 22.5665C13.1768 21.5869 12.9766 20.5274 12.9766 19.4219C12.9766 18.71 12.3994 18.1328 11.6875 18.1328ZM16.8438 23.2891C17.5545 23.2891 18.1328 23.8673 18.1328 24.5781C18.1328 25.2889 17.5545 25.8672 16.8438 25.8672C16.133 25.8672 15.5547 25.2889 15.5547 24.5781C15.5547 23.8673 16.133 23.2891 16.8438 23.2891ZM22 31.0234C23.3554 31.0234 24.657 30.7892 25.8672 30.3601V32.3125C25.8672 34.4449 24.1324 36.1797 22 36.1797C19.8676 36.1797 18.1328 34.4449 18.1328 32.3125V30.3601C19.343 30.7892 20.6446 31.0234 22 31.0234ZM41.4219 41.4219H2.57812V41.4044C2.57812 38.2348 4.88409 35.4662 7.942 34.9644C10.6227 34.5244 13.3511 34.1637 15.7599 33.9282C16.4788 36.7028 19.0039 38.7578 22 38.7578C24.9962 38.7578 27.5212 36.7028 28.2401 33.9282C30.6488 34.1637 33.3772 34.5244 36.058 34.9644C39.1159 35.4662 41.4219 38.2348 41.4219 41.4044V41.4219Z" fill="#162726"/>
<path d="M18.1328 15.5547C18.8447 15.5547 19.4219 14.9776 19.4219 14.2656C19.4219 13.5537 18.8447 12.9766 18.1328 12.9766C17.4209 12.9766 16.8438 13.5537 16.8438 14.2656C16.8438 14.9776 17.4209 15.5547 18.1328 15.5547Z" fill="#162726"/>
<path d="M25.8672 15.5547C26.5791 15.5547 27.1562 14.9776 27.1562 14.2656C27.1562 13.5537 26.5791 12.9766 25.8672 12.9766C25.1553 12.9766 24.5781 13.5537 24.5781 14.2656C24.5781 14.9776 25.1553 15.5547 25.8672 15.5547Z" fill="#162726"/>
</g>
<defs>
<clipPath id="clip0_684_3470">
<rect width="44" height="44" fill="white"/>
</clipPath>
</defs>
</svg>
