<svg width="44" height="44" viewBox="0 0 44 44" fill="none" xmlns="http://www.w3.org/2000/svg">
<g clip-path="url(#clip0_684_3481)">
<path d="M15.2351 8.47656H7.54169C6.82968 8.47656 6.25262 9.05362 6.25262 9.76562C6.25262 10.4776 6.82968 11.0547 7.54169 11.0547H15.2351C15.9468 11.0547 16.5242 10.4776 16.5242 9.76562C16.5242 9.05362 15.9468 8.47656 15.2351 8.47656Z" fill="#162726"/>
<path d="M15.2349 13.6328H7.5415C6.8295 13.6328 6.25244 14.2099 6.25244 14.9219C6.25244 15.6339 6.8295 16.2109 7.5415 16.2109H15.2349C15.9466 16.2109 16.524 15.6339 16.524 14.9219C16.524 14.2099 15.9466 13.6328 15.2349 13.6328Z" fill="#162726"/>
<path d="M15.2349 18.7891H7.5415C6.8295 18.7891 6.25244 19.3661 6.25244 20.0781C6.25244 20.7901 6.8295 21.3672 7.5415 21.3672H15.2349C15.9466 21.3672 16.524 20.7901 16.524 20.0781C16.524 19.3661 15.9466 18.7891 15.2349 18.7891Z" fill="#162726"/>
<path d="M15.2349 23.9473H7.5415C6.8295 23.9473 6.25244 24.5243 6.25244 25.2363C6.25244 25.9483 6.8295 26.5254 7.5415 26.5254H15.2349C15.9466 26.5254 16.524 25.9483 16.524 25.2363C16.524 24.5243 15.9466 23.9473 15.2349 23.9473Z" fill="#162726"/>
<path d="M15.2349 29.1895H7.5415C6.8295 29.1895 6.25244 29.7668 6.25244 30.4785C6.25244 31.1905 6.8295 31.7676 7.5415 31.7676H15.2349C15.9466 31.7676 16.524 31.1905 16.524 30.4785C16.524 29.7668 15.9466 29.1895 15.2349 29.1895Z" fill="#162726"/>
<path d="M19.5642 11.0547H27.2576C27.9696 11.0547 28.5467 10.4776 28.5467 9.76562C28.5467 9.05362 27.9696 8.47656 27.2576 8.47656H19.5642C18.8525 8.47656 18.2751 9.05362 18.2751 9.76562C18.2751 10.4776 18.8525 11.0547 19.5642 11.0547Z" fill="#162726"/>
<path d="M19.564 16.2109H27.2574C27.9694 16.2109 28.5464 15.6339 28.5464 14.9219C28.5464 14.2099 27.9694 13.6328 27.2574 13.6328H19.564C18.8523 13.6328 18.2749 14.2099 18.2749 14.9219C18.2749 15.6339 18.8523 16.2109 19.564 16.2109Z" fill="#162726"/>
<path d="M24.5584 20.0781C24.5584 19.3661 23.9814 18.7891 23.2693 18.7891H19.564C18.8523 18.7891 18.2749 19.3661 18.2749 20.0781C18.2749 20.7901 18.8523 21.3672 19.564 21.3672H23.2693C23.9814 21.3672 24.5584 20.7901 24.5584 20.0781Z" fill="#162726"/>
<path d="M36.7701 29.7328C36.2149 29.2874 35.4038 29.3763 34.958 29.9316L31.638 34.0707L29.5826 32.5815C29.0062 32.1636 28.1999 32.2925 27.7823 32.8689C27.3647 33.4456 27.4936 34.2516 28.07 34.6692L31.1191 36.8784C31.3473 37.0436 31.6119 37.1238 31.8747 37.1238C32.253 37.1238 32.627 36.9576 32.8808 36.6411L36.9692 31.5449C37.4147 30.9897 37.3257 30.1783 36.7701 29.7328Z" fill="#162726"/>
<path d="M40.0284 25.7762C38.3493 24.0675 36.1918 22.9906 33.854 22.6734V5.1915C33.854 2.32904 31.525 0 28.6625 0H6.13715C3.27435 0 0.945312 2.32904 0.945312 5.1915V35.0524C0.945312 37.9152 3.27435 40.2443 6.13681 40.2443H24.2538C26.2925 42.6391 29.2238 44 32.3951 44C38.2982 44 43.1007 39.1942 43.1007 33.287C43.1007 30.4591 42.0097 27.7917 40.0284 25.7762ZM3.52344 35.0524V5.1915C3.52344 3.7507 4.69601 2.57812 6.13715 2.57812H28.6625C30.1036 2.57812 31.2759 3.7507 31.2759 5.1915V22.6324C25.8967 23.1941 21.6895 27.7578 21.6895 33.287C21.6895 34.8195 22.0091 36.3012 22.622 37.6658H6.13715C4.69601 37.6658 3.52344 36.4936 3.52344 35.0524ZM32.3951 41.4219C29.8206 41.4219 27.454 40.2399 25.9014 38.1794C24.8326 36.7604 24.2673 35.0689 24.2673 33.287C24.2673 28.8015 27.9136 25.1522 32.3951 25.1522C32.4374 25.1522 32.48 25.1528 32.5223 25.1535L32.5421 25.1538C34.6815 25.1918 36.6873 26.0545 38.1898 27.5833C39.6941 29.1137 40.5226 31.1396 40.5226 33.287C40.5226 37.7726 36.8766 41.4219 32.3951 41.4219Z" fill="#162726"/>
</g>
<defs>
<clipPath id="clip0_684_3481">
<rect width="44" height="44" fill="white"/>
</clipPath>
</defs>
</svg>
