<svg width="44" height="44" viewBox="0 0 44 44" fill="none" xmlns="http://www.w3.org/2000/svg">
<path d="M40.9968 15.5595L39.2047 14.6635C44.1749 11.3504 41.8628 3.4777 35.8073 3.45243C29.7512 3.47795 27.4399 11.3526 32.411 14.664L30.6161 15.5617C30.4307 15.6544 30.2528 15.757 30.082 15.8678C29.7529 14.253 28.7068 12.8668 27.1897 12.1089L25.3975 11.213C30.3677 7.89987 28.0556 0.0273047 22.0001 0.00195312C15.9438 0.0274766 13.6326 7.90236 18.6039 11.2137L16.8092 12.1117C15.2939 12.8695 14.2488 14.2539 13.919 15.8666C13.7474 15.7554 13.5686 15.6525 13.3824 15.5594L11.5902 14.6634C16.5602 11.3504 14.2481 3.47778 8.19259 3.45252C2.13641 3.47804 -0.174797 11.3527 4.79626 14.6641L3.00145 15.5618C1.1501 16.4883 0 18.3498 0 20.4197V26.1442C0 26.8561 0.577156 27.4333 1.28906 27.4333H5.52295V39.917C5.52295 40.3434 5.73384 40.7423 6.08627 40.9824C6.43878 41.2224 6.88703 41.2728 7.28389 41.1166C7.30907 41.1067 9.96548 40.0802 13.0218 39.907C16.8251 39.6913 19.4679 40.8487 20.8775 43.3465C21.3534 44.214 22.6469 44.2142 23.1228 43.3465C24.5324 40.8487 27.1751 39.6913 30.9785 39.907C34.0348 40.0803 36.6911 41.1067 36.7164 41.1166C37.1132 41.2728 37.5615 41.2224 37.914 40.9824C38.2664 40.7423 38.4773 40.3434 38.4773 39.917V27.4333H42.7109C43.4228 27.4333 44 26.8561 44 26.1442V20.4176C44 18.3463 42.849 16.4847 40.9968 15.5595ZM32.2639 9.5741C32.2639 7.62023 33.8534 6.03064 35.8073 6.03064C40.5018 6.20879 40.5005 12.9402 35.8072 13.1176C33.8534 13.1176 32.2639 11.528 32.2639 9.5741ZM18.4565 6.12363C18.4565 4.16975 20.0461 2.58016 22 2.58016C26.6945 2.75831 26.6932 9.48971 21.9999 9.66717C20.0461 9.66717 18.4565 8.07759 18.4565 6.12363ZM4.64922 9.5741C4.64922 7.62023 6.2388 6.03064 8.19268 6.03064C12.8872 6.20879 12.8859 12.9402 8.19259 13.1176C6.2388 13.1176 4.64922 11.528 4.64922 9.5741ZM6.34021 22.1259C5.8471 22.3197 5.52295 22.7956 5.52295 23.3255V24.8552H2.57812V20.4197C2.57812 19.3321 3.18244 18.3541 4.15499 17.8674L8.19294 15.8478L12.2297 17.8656C13.2028 18.3517 13.8073 19.3296 13.8073 20.4176V20.7137C13.4809 20.7151 13.1487 20.7253 12.8098 20.7457C9.35464 20.9535 6.46164 22.0781 6.34021 22.1259ZM20.7109 39.3065C18.7248 37.8158 16.0529 37.1416 12.8097 37.3369C10.9693 37.4478 9.28855 37.8186 8.10098 38.1482V24.2464C9.12141 23.9265 10.9825 23.4313 13.0216 23.3158C16.6799 23.1087 19.2647 24.1715 20.7109 26.476V39.3065ZM22 23.9055C20.6093 22.3329 18.7145 21.3275 16.3854 20.9201V16.9692C16.3854 15.8817 16.9896 14.9039 17.9626 14.4175L22.0003 12.3973L26.037 14.4151C27.0101 14.9012 27.6146 15.8791 27.6146 16.9671V20.9201C25.2855 21.3276 23.3907 22.333 22 23.9055ZM35.8989 38.1482C34.7114 37.8186 33.0307 37.4477 31.1902 37.3369C27.947 37.1417 25.2751 37.8159 23.289 39.3065V26.4761C24.7352 24.1717 27.32 23.1087 30.9783 23.3159C33.0174 23.4314 34.8785 23.9266 35.8989 24.2465V38.1482ZM41.4219 24.8552H38.4771V23.3255C38.4771 22.7956 38.1529 22.3197 37.6598 22.1259C37.5384 22.0781 34.6454 20.9535 31.1902 20.7457C30.8513 20.7253 30.5191 20.7152 30.1927 20.7137V20.4197C30.1927 19.3322 30.797 18.3542 31.7695 17.8674L35.8076 15.8478L39.8443 17.8656C40.8174 18.3517 41.4219 19.3296 41.4219 20.4176V24.8552Z" fill="#004F44"/>
<path d="M16.7358 32.0462C15.3771 31.768 13.8573 31.7022 12.2188 31.8506C11.5097 31.9149 10.987 32.5417 11.0512 33.2507C11.1155 33.9598 11.7429 34.4825 12.4513 34.4183C13.839 34.2925 15.1065 34.3443 16.2187 34.572C17.203 34.7731 17.6672 33.9236 17.7401 33.5677C17.8829 32.8702 17.4333 32.189 16.7358 32.0462Z" fill="#004F44"/>
<path d="M16.7358 26.5154C15.3754 26.237 13.8557 26.171 12.2188 26.3191C10.5227 26.5366 10.7457 28.978 12.4513 28.8868C13.8375 28.7612 15.1051 28.8132 16.2187 29.0412C17.2031 29.2425 17.6673 28.3928 17.7402 28.0369C17.8829 27.3394 17.4333 26.6582 16.7358 26.5154Z" fill="#004F44"/>
<path d="M31.7812 31.8506C30.1427 31.7022 28.6229 31.768 27.2642 32.0462C26.5667 32.189 26.1171 32.8702 26.2598 33.5677C26.3327 33.9235 26.7969 34.7731 27.7813 34.572C28.8934 34.3444 30.1609 34.2925 31.5486 34.4183C32.2571 34.4825 32.8845 33.9599 32.9487 33.2507C33.013 32.5417 32.4903 31.9148 31.7812 31.8506Z" fill="#004F44"/>
<path d="M27.2642 26.5154C26.5667 26.6583 26.117 27.3394 26.2599 28.0369C26.3327 28.3928 26.7969 29.2425 27.7813 29.0412C28.895 28.8132 30.1625 28.7612 31.5487 28.8868C33.2556 28.9775 33.476 26.5358 31.7813 26.3192C30.1443 26.171 28.6246 26.2369 27.2642 26.5154Z" fill="#004F44"/>
</svg>
