<svg width="44" height="44" viewBox="0 0 44 44" fill="none" xmlns="http://www.w3.org/2000/svg">
<path d="M1.28908 23.4903H13.1341H30.9245H30.9248H42.6856C43.0536 23.4903 43.404 23.3331 43.6487 23.0581C43.8934 22.7832 44.0088 22.4168 43.9659 22.0513L43.7083 19.8519C43.6264 19.1528 43.4727 18.4968 43.2516 17.9018C42.2724 15.2686 40.0319 13.3313 37.3736 12.6734C39.0543 11.909 40.2264 10.2153 40.2264 8.25181C40.2264 5.57442 38.0482 3.39616 35.3708 3.39616C32.6934 3.39616 30.5151 5.57442 30.5151 8.25181C30.5151 10.2113 31.6825 11.9022 33.3577 12.6687C32.0812 12.9797 30.9015 13.5855 29.9024 14.4448C29.2689 13.6254 28.5079 12.9047 27.6373 12.3102C26.5868 11.593 25.4237 11.0907 24.2012 10.8183C26.2289 9.96677 27.6567 7.96082 27.6567 5.62745C27.6567 2.52441 25.1324 0 22.0294 0C18.9265 0 16.402 2.52441 16.402 5.62736C16.402 7.96082 17.8299 9.96669 19.8576 10.8182C18.6351 11.0907 17.472 11.593 16.4216 12.3101C15.5353 12.9153 14.7624 13.651 14.1223 14.4888C13.1122 13.6066 11.9135 12.9855 10.6161 12.669C12.2918 11.9026 13.4595 10.2115 13.4595 8.25163C13.4595 5.57425 11.2813 3.39599 8.60391 3.39599C5.92652 3.39599 3.74827 5.57425 3.74827 8.25163C3.74827 10.2151 4.92037 11.9089 6.60105 12.6732C3.94283 13.3311 1.70235 15.2684 0.723095 17.9017C0.501891 18.4966 0.348321 19.1527 0.266423 19.8517L0.00878213 22.0512C-0.0341007 22.4167 0.0813993 22.7831 0.325977 23.0581C0.570642 23.3331 0.921095 23.4903 1.28908 23.4903ZM35.3708 5.9742C36.6266 5.9742 37.6483 6.99591 37.6483 8.25172C37.6483 9.50752 36.6266 10.5292 35.3708 10.5292C34.115 10.5292 33.0933 9.50752 33.0933 8.25172C33.0933 6.99591 34.115 5.9742 35.3708 5.9742ZM35.3708 15.0058C37.7952 15.0058 39.9911 16.5307 40.835 18.8002C40.9845 19.2022 41.0897 19.657 41.1476 20.1517L41.2366 20.9122H32.0729L31.8932 19.3634C31.7881 18.4573 31.5763 17.6025 31.2637 16.8227C31.2518 16.793 31.2386 16.7639 31.2264 16.7343C32.3165 15.6282 33.7905 15.0058 35.3708 15.0058ZM22.0294 2.57812C23.7107 2.57812 25.0786 3.94599 25.0786 5.62736C25.0786 7.30864 23.7107 8.67651 22.0294 8.67651C20.348 8.67651 18.9802 7.30864 18.9802 5.62736C18.9802 3.94599 20.348 2.57812 22.0294 2.57812ZM22.0294 13.1575C25.0592 13.1575 27.7446 14.9726 28.8706 17.7818C29.0981 18.3495 29.2535 18.9815 29.3323 19.6605L29.4775 20.9121L14.5814 20.9122L14.7266 19.6605C14.8054 18.9816 14.9607 18.3495 15.1882 17.7819C16.3142 14.9726 18.9996 13.1575 22.0294 13.1575ZM8.60391 5.9742C9.85971 5.9742 10.8814 6.99591 10.8814 8.25172C10.8814 9.50752 9.85971 10.5292 8.60391 10.5292C7.3481 10.5292 6.32639 9.50752 6.32639 8.25172C6.32639 6.99591 7.34802 5.9742 8.60391 5.9742ZM2.82702 20.1517C2.88494 19.657 2.99013 19.2023 3.13957 18.8003C3.98348 16.5307 6.17944 15.0058 8.60382 15.0058C10.2103 15.0058 11.7104 15.652 12.8065 16.7955C12.8028 16.8046 12.7988 16.8135 12.7951 16.8226C12.4825 17.6025 12.2707 18.4573 12.1656 19.3634L11.9859 20.9122H2.73799L2.82702 20.1517Z" fill="#004F44"/>
<path d="M43.9243 31.5C43.7727 31.0334 43.3693 30.6933 42.8836 30.6227L39.2486 30.0945L37.6229 26.8006C37.4057 26.3606 36.9576 26.082 36.4669 26.082C35.9763 26.082 35.5282 26.3606 35.311 26.8006L33.6853 30.0945L30.0502 30.6227C29.7156 30.6714 29.4201 30.848 29.219 31.1059C29.0179 30.848 28.7223 30.6714 28.3877 30.6227L24.7526 30.0945L23.127 26.8006C22.9098 26.3606 22.4616 26.082 21.971 26.082C21.4804 26.082 21.0322 26.3606 20.8151 26.8006L19.1894 30.0945L15.5544 30.6227C15.2323 30.6695 14.9469 30.8354 14.7467 31.0777C14.5464 30.8354 14.261 30.6695 13.9389 30.6227L10.304 30.0945L8.67828 26.8006C8.46112 26.3606 8.01295 26.082 7.52233 26.082C7.03172 26.082 6.58355 26.3606 6.36639 26.8006L4.7408 30.0945L1.10572 30.6227C0.620178 30.6933 0.216701 31.0334 0.0651077 31.5C-0.086572 31.9667 0.0399281 32.479 0.391241 32.8215L3.02162 35.3855L2.40063 39.0058C2.3177 39.4894 2.51647 39.9782 2.91342 40.2666C3.13806 40.4298 3.40395 40.5128 3.67122 40.5128C3.87635 40.5128 4.08234 40.4639 4.27098 40.3648L7.52225 38.6555L10.7735 40.3648C11.2078 40.5931 11.734 40.555 12.1311 40.2666C12.528 39.9782 12.7269 39.4895 12.6439 39.0058L12.0229 35.3855L14.6533 32.8215C14.6866 32.7889 14.7173 32.7545 14.7466 32.7191C14.7759 32.7545 14.8065 32.7889 14.8399 32.8215L17.4702 35.3855L16.8492 39.0058C16.7663 39.4894 16.9651 39.9782 17.362 40.2666C17.759 40.555 18.2853 40.5931 18.7196 40.3648L21.9708 38.6555L25.2221 40.3648C25.4107 40.4639 25.6166 40.5128 25.8219 40.5128C26.0891 40.5128 26.3551 40.4298 26.5797 40.2666C26.9766 39.9782 27.1755 39.4895 27.0924 39.0058L26.4715 35.3855L29.1018 32.8215C29.1441 32.7803 29.183 32.7364 29.2187 32.6907C29.2544 32.7365 29.2932 32.7803 29.3356 32.8215L31.966 35.3855L31.345 39.0058C31.2621 39.4894 31.4608 39.9782 31.8578 40.2666C32.2548 40.555 32.7811 40.5931 33.2153 40.3648L36.4666 38.6555L39.7179 40.3648C39.9065 40.4639 40.1124 40.5128 40.3175 40.5128C40.5848 40.5128 40.8508 40.4298 41.0753 40.2666C41.4723 39.9782 41.6711 39.4895 41.5881 39.0058L40.9671 35.3855L43.5975 32.8215C43.9494 32.479 44.0759 31.9667 43.9243 31.5ZM9.73823 34.0123C9.43444 34.3085 9.29583 34.7352 9.3675 35.1533L9.66149 36.8673L8.12226 36.0581C7.74672 35.8606 7.29812 35.8606 6.92258 36.0581L5.38326 36.8674L5.67726 35.1533C5.74893 34.7352 5.61031 34.3085 5.30652 34.0123L4.0612 32.7985L5.7821 32.5484C6.20199 32.4874 6.5649 32.2237 6.75268 31.8432L7.52233 30.2837L8.2919 31.8432C8.47968 32.2236 8.84268 32.4874 9.26257 32.5484L10.9835 32.7985L9.73823 34.0123ZM24.187 34.0123C23.8832 34.3085 23.7446 34.7352 23.8163 35.1533L24.1102 36.8674L22.5709 36.0581C22.3832 35.9593 22.1771 35.91 21.9711 35.91C21.7651 35.91 21.559 35.9593 21.3712 36.0581L19.8319 36.8674L20.1259 35.1533C20.1977 34.7352 20.059 34.3085 19.7552 34.0123L18.51 32.7985L20.2309 32.5484C20.6507 32.4874 21.0137 32.2236 21.2014 31.8432L21.9711 30.2837L22.7407 31.8432C22.9285 32.2236 23.2915 32.4874 23.7113 32.5484L25.4322 32.7985L24.187 34.0123ZM38.6828 34.0123C38.3791 34.3085 38.2404 34.7352 38.3121 35.1533L38.6061 36.8674L37.0668 36.0581C36.879 35.9593 36.6729 35.91 36.4669 35.91C36.261 35.91 36.0549 35.9593 35.8671 36.0581L34.3278 36.8674L34.6218 35.1533C34.6935 34.7352 34.5548 34.3085 34.251 34.0123L33.0057 32.7985L34.7266 32.5484C35.1465 32.4874 35.5094 32.2237 35.6972 31.8432L36.4669 30.2837L37.2365 31.8432C37.4243 32.2236 37.7873 32.4874 38.2071 32.5484L39.928 32.7985L38.6828 34.0123Z" fill="#004F44"/>
</svg>
