<svg width="36" height="36" viewBox="0 0 36 36" fill="none" xmlns="http://www.w3.org/2000/svg">
<g clip-path="url(#clip0_2086_683)">
<path d="M31.5005 6.53906C31.8888 6.53906 32.2036 6.22427 32.2036 5.83594V2.10938C32.2036 0.946266 31.2573 0 30.0942 0H2.10986C0.946754 0 0.000488281 0.946266 0.000488281 2.10938V33.8906C0.000488281 35.0537 0.946754 36 2.10986 36H30.0942C31.2573 36 32.2036 35.0537 32.2036 33.8906V31.9219C32.2036 31.5335 31.8888 31.2188 31.5005 31.2188C31.1122 31.2188 30.7974 31.5335 30.7974 31.9219V33.8906C30.7974 34.2783 30.4819 34.5938 30.0942 34.5938H2.10986C1.72216 34.5938 1.40674 34.2783 1.40674 33.8906V2.10938C1.40674 1.72167 1.72216 1.40625 2.10986 1.40625H30.0942C30.4819 1.40625 30.7974 1.72167 30.7974 2.10938V5.83594C30.7974 6.22427 31.1122 6.53906 31.5005 6.53906Z" fill="#004F44"/>
<path d="M28.1258 3.375H4.07812C3.68979 3.375 3.375 3.68979 3.375 4.07812V18.7734C3.375 19.1618 3.68979 19.4766 4.07812 19.4766C4.46646 19.4766 4.78125 19.1618 4.78125 18.7734V4.78125H27.4227V5.90625C27.4227 6.29459 27.7376 6.60938 28.1258 6.60938C28.5142 6.60938 28.829 6.29459 28.829 5.90625V4.07812C28.829 3.68979 28.5142 3.375 28.1258 3.375Z" fill="#004F44"/>
<path d="M4.57475 20.8779C4.44397 20.7471 4.26326 20.6719 4.07764 20.6719C3.89271 20.6719 3.71131 20.7471 3.58053 20.8779C3.44975 21.0087 3.37451 21.1901 3.37451 21.375C3.37451 21.5599 3.44975 21.7413 3.58053 21.8721C3.71131 22.0029 3.89271 22.0781 4.07764 22.0781C4.26326 22.0781 4.44397 22.0029 4.57475 21.8721C4.70623 21.7413 4.78076 21.5599 4.78076 21.375C4.78076 21.1901 4.70623 21.0087 4.57475 20.8779Z" fill="#004F44"/>
<path d="M28.1258 29.6719C27.7375 29.6719 27.4227 29.9867 27.4227 30.375V31.2188H4.78125V24.082C4.78125 23.6937 4.46646 23.3789 4.07812 23.3789C3.68979 23.3789 3.375 23.6937 3.375 24.082V31.9219C3.375 32.3102 3.68979 32.625 4.07812 32.625H28.1258C28.5142 32.625 28.829 32.3102 28.829 31.9219V30.375C28.829 29.9867 28.5142 29.6719 28.1258 29.6719Z" fill="#004F44"/>
<path d="M21.7903 24.8447C21.5157 24.57 21.0706 24.57 20.7959 24.8446L19.4063 26.2343L18.5425 25.3705C17.9971 24.8251 17.1098 24.8251 16.5644 25.3705L16.0023 25.9325C15.7277 26.2071 15.7277 26.6523 16.0023 26.927C16.2769 27.2015 16.7221 27.2015 16.9967 26.927L17.5535 26.3702L18.4173 27.2341C18.6899 27.5068 19.0481 27.6431 19.4063 27.6431C19.7645 27.6431 20.1226 27.5068 20.3953 27.2341L21.7903 25.8391C22.0649 25.5645 22.0649 25.1193 21.7903 24.8447Z" fill="#004F44"/>
<path d="M35.6765 14.7505C35.9864 14.2671 36.0789 13.6717 35.9303 13.1171C35.7817 12.5625 35.4039 12.0931 34.8938 11.8295C34.6726 11.7151 34.5372 11.4806 34.5488 11.2319C34.5755 10.6583 34.3579 10.0965 33.9519 9.69041C33.5459 9.28443 32.9843 9.06653 32.4105 9.09353C32.1606 9.10563 31.9272 8.96964 31.8129 8.74851C31.5492 8.23846 31.0799 7.86067 30.5252 7.71203C29.9704 7.56332 29.3752 7.65592 28.8919 7.96579C28.6823 8.10023 28.4114 8.10016 28.2019 7.96579C27.7185 7.65585 27.1232 7.56339 26.5685 7.71203C26.0139 7.86067 25.5446 8.23846 25.2809 8.74851C25.1666 8.96971 24.9314 9.10478 24.6833 9.09353C24.1095 9.06674 23.5479 9.28443 23.1419 9.69041C22.7359 10.0965 22.5183 10.6583 22.545 11.2318C22.5566 11.4806 22.4211 11.7151 22.2 11.8295C21.6899 12.0931 21.3121 12.5624 21.1635 13.1171C21.0925 13.3817 21.0771 13.6555 21.1135 13.9221H8.84396C8.45562 13.9221 8.14084 14.2369 8.14084 14.6252C8.14084 15.0136 8.45562 15.3284 8.84396 15.3284H21.4727C21.4576 15.367 21.4401 15.4049 21.4172 15.4406C21.1073 15.924 21.0148 16.5194 21.1634 17.074C21.1838 17.1501 21.2089 17.2245 21.2377 17.2971H8.84375C8.45541 17.2971 8.14062 17.6119 8.14062 18.0002C8.14062 18.3886 8.45541 18.7034 8.84375 18.7034H22.503C22.5336 18.7837 22.5489 18.8704 22.5448 18.9592C22.5181 19.5328 22.7357 20.0946 23.1417 20.5007C23.5477 20.9067 24.1093 21.1246 24.6831 21.0976C24.9315 21.0854 25.1664 21.2214 25.2807 21.4426C25.3651 21.606 25.471 21.7555 25.5937 21.8886V28.4553C25.5937 28.7394 25.7646 28.9956 26.0269 29.1046C26.2891 29.2137 26.5913 29.1542 26.7927 28.9538L28.5468 27.2088L30.3009 28.9538C30.4353 29.0875 30.6145 29.1585 30.7969 29.1585C30.8878 29.1585 30.9795 29.1408 31.0667 29.1045C31.329 28.9955 31.4999 28.7393 31.4999 28.4553V21.8886C31.6226 21.7555 31.7284 21.6059 31.8129 21.4425C31.9272 21.2213 32.162 21.0862 32.4105 21.0975C32.9846 21.1246 33.5459 20.9067 33.9519 20.5006C34.3579 20.0946 34.5755 19.5328 34.5488 18.9591C34.5372 18.7105 34.6727 18.4759 34.8938 18.3616C35.4039 18.0979 35.7817 17.6286 35.9303 17.0739C36.0789 16.5192 35.9864 15.9239 35.6765 15.4404C35.5421 15.231 35.5421 14.9601 35.6765 14.7505ZM30.0937 26.7641L29.0426 25.7186C28.7683 25.4457 28.3252 25.4457 28.0509 25.7186L26.9999 26.7641V22.5459C27.4206 22.5658 27.8422 22.4558 28.2018 22.2253C28.4114 22.0909 28.6823 22.0909 28.8918 22.2253C29.2239 22.4382 29.6088 22.5485 29.9971 22.5485C30.0293 22.5485 30.0615 22.5469 30.0937 22.5454V26.7641ZM34.5719 16.7101C34.5248 16.8859 34.4097 17.0289 34.248 17.1125C33.5404 17.4783 33.107 18.2288 33.144 19.0246C33.1525 19.2065 33.0862 19.3776 32.9575 19.5064C32.8287 19.6351 32.6577 19.7012 32.4758 19.6929C31.6796 19.6561 30.9295 20.0892 30.5636 20.7969C30.48 20.9587 30.3371 21.0737 30.1612 21.1208C29.9854 21.1679 29.804 21.1398 29.6508 21.0415C29.3154 20.8265 28.9311 20.7191 28.5467 20.7191C28.1625 20.7191 27.7781 20.8266 27.4427 21.0415C27.2895 21.1397 27.1081 21.1679 26.9323 21.1208C26.7563 21.0737 26.6135 20.9586 26.5298 20.7969C26.164 20.0893 25.414 19.6557 24.6177 19.6929C24.4362 19.7013 24.2647 19.6351 24.1359 19.5064C24.0071 19.3776 23.9409 19.2065 23.9494 19.0245C23.9755 18.4629 23.7665 17.9244 23.3929 17.5272C23.3819 17.5152 23.3707 17.5034 23.3589 17.4921C23.2106 17.3418 23.0386 17.2124 22.8454 17.1125C22.6837 17.0289 22.5687 16.886 22.5216 16.7101C22.4745 16.5341 22.5026 16.3528 22.6009 16.1996C23.0308 15.529 23.0308 14.6623 22.6009 13.9916C22.5027 13.8384 22.4745 13.657 22.5216 13.4811C22.5687 13.3053 22.6838 13.1623 22.8455 13.0787C23.5531 12.7129 23.9865 11.9624 23.9495 11.1666C23.941 10.9847 24.0073 10.8136 24.136 10.6848C24.2648 10.556 24.4362 10.4899 24.6177 10.4982C25.414 10.5351 26.1641 10.102 26.5299 9.39426C26.6135 9.23247 26.7564 9.11744 26.9323 9.07033C27.1082 9.02329 27.2895 9.05134 27.4427 9.14964C28.1135 9.57967 28.9802 9.57967 29.6507 9.14964C29.804 9.05141 29.9852 9.02315 30.1612 9.07033C30.3371 9.11744 30.48 9.23254 30.5636 9.39426C30.9295 10.1019 31.6799 10.5354 32.4758 10.4982C32.6577 10.4899 32.8287 10.556 32.9575 10.6848C33.0863 10.8136 33.1525 10.9847 33.144 11.1666C33.107 11.9623 33.5403 12.7129 34.2481 13.0787C34.4098 13.1623 34.5248 13.3052 34.5719 13.4811C34.619 13.657 34.5909 13.8384 34.4926 13.9916C34.0627 14.6622 34.0627 15.5289 34.4926 16.1995C34.5909 16.3528 34.6191 16.5341 34.5719 16.7101Z" fill="#004F44"/>
<path d="M31.8906 13.1825C31.616 12.9079 31.1708 12.9079 30.8962 13.1825L28.5625 15.5163L27.6335 14.5873C27.3589 14.3127 26.9137 14.3127 26.639 14.5873C26.3645 14.8618 26.3645 15.3071 26.639 15.5817L28.0653 17.0079C28.2026 17.1452 28.3825 17.2139 28.5624 17.2139C28.7424 17.2139 28.9224 17.1452 29.0596 17.0079L31.8906 14.1769C32.1652 13.9024 32.1652 13.4571 31.8906 13.1825Z" fill="#004F44"/>
<path d="M8.58354 8.50289C8.45275 8.37211 8.27135 8.29688 8.08643 8.29688C7.9015 8.29688 7.7201 8.37211 7.58932 8.50289C7.45854 8.63367 7.3833 8.81508 7.3833 9C7.3833 9.18492 7.45854 9.36633 7.58932 9.49711C7.7201 9.62789 7.9015 9.70312 8.08643 9.70312C8.27135 9.70312 8.45275 9.62789 8.58354 9.49711C8.71432 9.36633 8.78955 9.18492 8.78955 9C8.78955 8.81508 8.71432 8.63367 8.58354 8.50289Z" fill="#004F44"/>
<path d="M14.1328 8.29688H10.7109C10.3226 8.29688 10.0078 8.61166 10.0078 9C10.0078 9.38834 10.3226 9.70312 10.7109 9.70312H14.1328C14.5212 9.70312 14.836 9.38834 14.836 9C14.836 8.61166 14.5212 8.29688 14.1328 8.29688Z" fill="#004F44"/>
<path d="M21.2931 20.6719H13.2549C12.8665 20.6719 12.5518 20.9867 12.5518 21.375C12.5518 21.7633 12.8665 22.0781 13.2549 22.0781H21.2931C21.6814 22.0781 21.9962 21.7633 21.9962 21.375C21.9962 20.9867 21.6815 20.6719 21.2931 20.6719Z" fill="#004F44"/>
</g>
<defs>
<clipPath id="clip0_2086_683">
<rect width="36" height="36" fill="white"/>
</clipPath>
</defs>
</svg>
