<svg width="32" height="36" viewBox="0 0 32 36" fill="none" xmlns="http://www.w3.org/2000/svg">
<path d="M31.461 25.7182C31.3626 25.4362 31.0961 25.2464 30.7973 25.2464C30.7185 25.2464 30.6405 25.2598 30.5659 25.2858C30.1996 25.4137 30.0055 25.8152 30.1335 26.1816C30.3663 26.8495 30.4844 27.5505 30.4844 28.2656C30.4837 29.9552 29.8255 31.5443 28.6309 32.7403C27.4349 33.9349 25.8459 34.5938 24.1562 34.5938C22.4666 34.5938 20.8776 33.9349 19.6816 32.7403C18.487 31.5443 17.8281 29.9552 17.8281 28.2656C17.8281 26.576 18.487 24.987 19.6816 23.7909C20.8776 22.5963 22.4666 21.9382 24.1562 21.9375C24.8713 21.9375 25.573 22.0556 26.241 22.2891C26.3162 22.3151 26.3943 22.3284 26.473 22.3284C26.7719 22.3284 27.0384 22.1386 27.1368 21.8566C27.2648 21.4903 27.0707 21.0888 26.7044 20.9609C25.8873 20.6761 25.0302 20.5312 24.1577 20.5312H24.1562C23.1121 20.5312 22.0989 20.7359 21.1455 21.1395C20.8177 21.278 20.5025 21.4389 20.1997 21.6193L17.1486 20.7592L17.0219 19.365C18.8034 18.3932 20.0995 16.6347 20.4262 14.5439C22.4891 13.4214 23.6641 11.8136 23.6641 10.0898C23.6641 8.44671 22.6335 6.94153 20.7537 5.82209C20.5262 4.47708 19.9071 3.22931 18.9425 2.20704C17.5996 0.783773 15.7805 0 13.8203 0C11.8601 0 10.041 0.783773 8.69812 2.20704C7.73315 3.22973 7.11391 4.47799 6.88659 5.8223C5.00699 6.94167 3.97656 8.44678 3.97656 10.0898C3.97656 11.8136 5.15148 13.4212 7.21417 14.5437C7.54 16.634 8.83642 18.393 10.6187 19.365L10.492 20.7592L5.69191 22.1124C4.06938 22.5824 2.67536 23.5446 1.66054 24.8951C0.645719 26.2455 0.109375 27.8522 0.109375 29.5414V35.2969C0.109375 35.6852 0.424164 36 0.8125 36H26.8281C27.2165 36 27.5312 35.6852 27.5312 35.2969V35.2259C28.3069 34.8498 29.01 34.3496 29.6252 33.7345C30.3353 33.0243 30.8929 32.1974 31.2824 31.2763C31.686 30.3229 31.8906 29.3097 31.8906 28.2656C31.8906 27.3923 31.7465 26.5359 31.461 25.7182ZM22.2578 10.0898C22.2578 11.0648 21.649 12.0199 20.553 12.8099L20.8305 7.58384C21.7495 8.33203 22.2578 9.20925 22.2578 10.0898ZM9.72095 3.17208C10.7954 2.03337 12.2512 1.40625 13.8203 1.40625C15.3894 1.40625 16.8452 2.03337 17.9197 3.17208C18.9874 4.30369 19.5258 5.7806 19.4355 7.3343L19.3967 8.06393C17.0084 7.3722 15.1507 5.74945 15.1307 5.73187C14.866 5.49703 14.468 5.49541 14.2013 5.72836C12.2168 7.46269 9.99665 8.27958 8.27568 8.6632L8.20494 7.33078C8.1148 5.7806 8.65319 4.30369 9.72095 3.17208ZM5.38281 10.0898C5.38281 9.20925 5.89117 8.33203 6.81016 7.58391L7.08768 12.81C5.99158 12.0199 5.38281 11.0648 5.38281 10.0898ZM8.54969 13.8237L8.35119 10.0854C10.1486 9.71191 12.5015 8.90515 14.6711 7.16843C15.4724 7.78254 17.21 8.96372 19.3205 9.50048L19.0911 13.8202C18.9297 16.5977 16.6145 18.7734 13.8203 18.7734C11.0262 18.7734 8.71091 16.5977 8.54969 13.8237ZM13.8203 20.1797C14.4576 20.1797 15.075 20.0898 15.6605 19.9226L15.7624 21.0432L13.8203 23.0108L11.8782 21.0432L11.9801 19.9226C12.5657 20.0898 13.1831 20.1797 13.8203 20.1797ZM1.51562 29.5414C1.51562 26.7416 3.39381 24.2421 6.07834 23.4645L10.9397 22.0941L13.3199 24.5057C13.452 24.6395 13.6322 24.7148 13.8203 24.7148C14.0084 24.7148 14.1886 24.6395 14.3207 24.5057L16.7009 22.0941L18.8027 22.6866C18.7643 22.7235 18.725 22.759 18.6873 22.7967C17.9771 23.5069 17.4195 24.3337 17.03 25.2548C16.6265 26.2083 16.4219 27.2215 16.4219 28.2656C16.4219 29.3098 16.6265 30.323 17.0301 31.2764C17.4196 32.1975 17.9772 33.0244 18.6873 33.7345C19.0054 34.0526 19.3481 34.3383 19.711 34.5938H7.31641V29.8828C7.31641 29.4945 7.00162 29.1797 6.61328 29.1797C6.22495 29.1797 5.91016 29.4945 5.91016 29.8828V34.5938H1.51562V29.5414Z" fill="#141519"/>
<path d="M31.461 25.7182C31.3626 25.4362 31.0961 25.2464 30.7973 25.2464C30.7185 25.2464 30.6405 25.2598 30.5659 25.2858C30.1996 25.4137 30.0055 25.8152 30.1335 26.1816C30.3663 26.8495 30.4844 27.5505 30.4844 28.2656C30.4837 29.9552 29.8255 31.5443 28.6309 32.7403C27.4349 33.9349 25.8459 34.5938 24.1562 34.5938C22.4666 34.5938 20.8776 33.9349 19.6816 32.7403C18.487 31.5443 17.8281 29.9552 17.8281 28.2656C17.8281 26.576 18.487 24.987 19.6816 23.7909C20.8776 22.5963 22.4666 21.9382 24.1562 21.9375C24.8713 21.9375 25.573 22.0556 26.241 22.2891C26.3162 22.3151 26.3943 22.3284 26.473 22.3284C26.7719 22.3284 27.0384 22.1386 27.1368 21.8566C27.2648 21.4903 27.0707 21.0888 26.7044 20.9609C25.8873 20.6761 25.0302 20.5312 24.1577 20.5312H24.1562C23.1121 20.5312 22.0989 20.7359 21.1455 21.1395C20.8177 21.278 20.5025 21.4389 20.1997 21.6193L17.1486 20.7592L17.0219 19.365C18.8034 18.3932 20.0995 16.6347 20.4262 14.5439C22.4891 13.4214 23.6641 11.8136 23.6641 10.0898C23.6641 8.44671 22.6335 6.94153 20.7537 5.82209C20.5262 4.47708 19.9071 3.22931 18.9425 2.20704C17.5996 0.783773 15.7805 0 13.8203 0C11.8601 0 10.041 0.783773 8.69812 2.20704C7.73315 3.22973 7.11391 4.47799 6.88659 5.8223C5.00699 6.94167 3.97656 8.44678 3.97656 10.0898C3.97656 11.8136 5.15148 13.4212 7.21417 14.5437C7.54 16.634 8.83642 18.393 10.6187 19.365L10.492 20.7592L5.69191 22.1124C4.06938 22.5824 2.67536 23.5446 1.66054 24.8951C0.645719 26.2455 0.109375 27.8522 0.109375 29.5414V35.2969C0.109375 35.6852 0.424164 36 0.8125 36H26.8281C27.2165 36 27.5312 35.6852 27.5312 35.2969V35.2259C28.3069 34.8498 29.01 34.3496 29.6252 33.7345C30.3353 33.0243 30.8929 32.1974 31.2824 31.2763C31.686 30.3229 31.8906 29.3097 31.8906 28.2656C31.8906 27.3923 31.7465 26.5359 31.461 25.7182ZM22.2578 10.0898C22.2578 11.0648 21.649 12.0199 20.553 12.8099L20.8305 7.58384C21.7495 8.33203 22.2578 9.20925 22.2578 10.0898ZM9.72095 3.17208C10.7954 2.03337 12.2512 1.40625 13.8203 1.40625C15.3894 1.40625 16.8452 2.03337 17.9197 3.17208C18.9874 4.30369 19.5258 5.7806 19.4355 7.3343L19.3967 8.06393C17.0084 7.3722 15.1507 5.74945 15.1307 5.73187C14.866 5.49703 14.468 5.49541 14.2013 5.72836C12.2168 7.46269 9.99665 8.27958 8.27568 8.6632L8.20494 7.33078C8.1148 5.7806 8.65319 4.30369 9.72095 3.17208ZM5.38281 10.0898C5.38281 9.20925 5.89117 8.33203 6.81016 7.58391L7.08768 12.81C5.99158 12.0199 5.38281 11.0648 5.38281 10.0898ZM8.54969 13.8237L8.35119 10.0854C10.1486 9.71191 12.5015 8.90515 14.6711 7.16843C15.4724 7.78254 17.21 8.96372 19.3205 9.50048L19.0911 13.8202C18.9297 16.5977 16.6145 18.7734 13.8203 18.7734C11.0262 18.7734 8.71091 16.5977 8.54969 13.8237ZM13.8203 20.1797C14.4576 20.1797 15.075 20.0898 15.6605 19.9226L15.7624 21.0432L13.8203 23.0108L11.8782 21.0432L11.9801 19.9226C12.5657 20.0898 13.1831 20.1797 13.8203 20.1797ZM1.51562 29.5414C1.51562 26.7416 3.39381 24.2421 6.07834 23.4645L10.9397 22.0941L13.3199 24.5057C13.452 24.6395 13.6322 24.7148 13.8203 24.7148C14.0084 24.7148 14.1886 24.6395 14.3207 24.5057L16.7009 22.0941L18.8027 22.6866C18.7643 22.7235 18.725 22.759 18.6873 22.7967C17.9771 23.5069 17.4195 24.3337 17.03 25.2548C16.6265 26.2083 16.4219 27.2215 16.4219 28.2656C16.4219 29.3098 16.6265 30.323 17.0301 31.2764C17.4196 32.1975 17.9772 33.0244 18.6873 33.7345C19.0054 34.0526 19.3481 34.3383 19.711 34.5938H7.31641V29.8828C7.31641 29.4945 7.00162 29.1797 6.61328 29.1797C6.22495 29.1797 5.91016 29.4945 5.91016 29.8828V34.5938H1.51562V29.5414Z" fill="#004F44"/>
<path d="M29.1289 23.998C29.5172 23.998 29.832 23.6832 29.832 23.2949C29.832 22.9066 29.5172 22.5918 29.1289 22.5918C28.7406 22.5918 28.4258 22.9066 28.4258 23.2949C28.4258 23.6832 28.7406 23.998 29.1289 23.998Z" fill="#141519"/>
<path d="M29.1289 23.998C29.5172 23.998 29.832 23.6832 29.832 23.2949C29.832 22.9066 29.5172 22.5918 29.1289 22.5918C28.7406 22.5918 28.4258 22.9066 28.4258 23.2949C28.4258 23.6832 28.7406 23.998 29.1289 23.998Z" fill="#004F44"/>
<path d="M27.1615 25.3818C26.8308 25.1782 26.3977 25.2814 26.1942 25.6121L23.8816 29.3701L22.0487 27.2754C21.793 26.9832 21.3488 26.9536 21.0565 27.2093C20.7643 27.465 20.7346 27.9092 20.9904 28.2014L23.4513 31.0139C23.5854 31.1672 23.808 31.2529 24.0098 31.2529C24.2324 31.2341 24.4623 31.1097 24.5793 30.9194L27.3918 26.3491C27.5953 26.0184 27.4922 25.5853 27.1615 25.3818Z" fill="#141519"/>
<path d="M27.1615 25.3818C26.8308 25.1782 26.3977 25.2814 26.1942 25.6121L23.8816 29.3701L22.0487 27.2754C21.793 26.9832 21.3488 26.9536 21.0565 27.2093C20.7643 27.465 20.7346 27.9092 20.9904 28.2014L23.4513 31.0139C23.5854 31.1672 23.808 31.2529 24.0098 31.2529C24.2324 31.2341 24.4623 31.1097 24.5793 30.9194L27.3918 26.3491C27.5953 26.0184 27.4922 25.5853 27.1615 25.3818Z" fill="#004F44"/>
<path d="M15.715 16.3261C15.9943 16.0564 16.0021 15.6113 15.7323 15.3319C15.4627 15.0526 15.0175 15.0448 14.7381 15.3145C14.232 15.8032 13.4086 15.8032 12.9025 15.3145C12.6232 15.0448 12.1781 15.0526 11.9083 15.3319C11.6385 15.6113 11.6463 16.0563 11.9256 16.3261C12.448 16.8305 13.1342 17.0828 13.8203 17.0828C14.5064 17.0828 15.1926 16.8306 15.715 16.3261Z" fill="#141519"/>
<path d="M15.715 16.3261C15.9943 16.0564 16.0021 15.6113 15.7323 15.3319C15.4627 15.0526 15.0175 15.0448 14.7381 15.3145C14.232 15.8032 13.4086 15.8032 12.9025 15.3145C12.6232 15.0448 12.1781 15.0526 11.9083 15.3319C11.6385 15.6113 11.6463 16.0563 11.9256 16.3261C12.448 16.8305 13.1342 17.0828 13.8203 17.0828C14.5064 17.0828 15.1926 16.8306 15.715 16.3261Z" fill="#004F44"/>
<path d="M16.8086 12.375C17.1969 12.375 17.5117 12.0602 17.5117 11.6719C17.5117 11.2835 17.1969 10.9688 16.8086 10.9688C16.4203 10.9688 16.1055 11.2835 16.1055 11.6719C16.1055 12.0602 16.4203 12.375 16.8086 12.375Z" fill="#141519"/>
<path d="M16.8086 12.375C17.1969 12.375 17.5117 12.0602 17.5117 11.6719C17.5117 11.2835 17.1969 10.9688 16.8086 10.9688C16.4203 10.9688 16.1055 11.2835 16.1055 11.6719C16.1055 12.0602 16.4203 12.375 16.8086 12.375Z" fill="#004F44"/>
<path d="M10.832 12.375C11.2204 12.375 11.5352 12.0602 11.5352 11.6719C11.5352 11.2835 11.2204 10.9688 10.832 10.9688C10.4437 10.9688 10.1289 11.2835 10.1289 11.6719C10.1289 12.0602 10.4437 12.375 10.832 12.375Z" fill="#141519"/>
<path d="M10.832 12.375C11.2204 12.375 11.5352 12.0602 11.5352 11.6719C11.5352 11.2835 11.2204 10.9688 10.832 10.9688C10.4437 10.9688 10.1289 11.2835 10.1289 11.6719C10.1289 12.0602 10.4437 12.375 10.832 12.375Z" fill="#004F44"/>
<path d="M13.8203 32.3438C14.2086 32.3438 14.5234 32.029 14.5234 31.6406C14.5234 31.2523 14.2086 30.9375 13.8203 30.9375C13.432 30.9375 13.1172 31.2523 13.1172 31.6406C13.1172 32.029 13.432 32.3438 13.8203 32.3438Z" fill="#141519"/>
<path d="M13.8203 32.3438C14.2086 32.3438 14.5234 32.029 14.5234 31.6406C14.5234 31.2523 14.2086 30.9375 13.8203 30.9375C13.432 30.9375 13.1172 31.2523 13.1172 31.6406C13.1172 32.029 13.432 32.3438 13.8203 32.3438Z" fill="#004F44"/>
<path d="M13.8203 29.1797C14.2086 29.1797 14.5234 28.8649 14.5234 28.4766C14.5234 28.0882 14.2086 27.7734 13.8203 27.7734C13.432 27.7734 13.1172 28.0882 13.1172 28.4766C13.1172 28.8649 13.432 29.1797 13.8203 29.1797Z" fill="#141519"/>
<path d="M13.8203 29.1797C14.2086 29.1797 14.5234 28.8649 14.5234 28.4766C14.5234 28.0882 14.2086 27.7734 13.8203 27.7734C13.432 27.7734 13.1172 28.0882 13.1172 28.4766C13.1172 28.8649 13.432 29.1797 13.8203 29.1797Z" fill="#004F44"/>
</svg>
