<svg width="36" height="36" viewBox="0 0 36 36" fill="none" xmlns="http://www.w3.org/2000/svg">
<path d="M35.2969 1.4082H0.703125C0.314789 1.4082 0 1.72306 0 2.11133V33.8882C0 34.2765 0.314789 34.5913 0.703125 34.5913H7.52344C7.91177 34.5913 8.22656 34.2765 8.22656 33.8882C8.22656 33.5 7.91177 33.1851 7.52344 33.1851H1.40625V7.87337C1.42945 7.87569 1.45301 7.87695 1.47684 7.87695H34.5938V33.1851H33.343V30.1472C33.343 28.7745 32.4676 27.5621 31.1645 27.1304L28.6834 26.3082C28.9862 25.9518 29.2333 25.5471 29.4116 25.1071H31.501C31.8893 25.1071 32.2041 24.7922 32.2041 24.404V22.4208C32.2041 18.6249 29.1159 15.5367 25.32 15.5367C21.524 15.5367 18.4358 18.6249 18.4358 22.4208V24.404C18.4358 24.7922 18.7506 25.1071 19.1389 25.1071H21.2283C21.4066 25.5471 21.6537 25.9518 21.9566 26.3082L19.4754 27.1304C18.1723 27.5621 17.2969 28.7745 17.2969 30.1472V33.185H14.0264C13.6381 33.185 13.3233 33.4999 13.3233 33.8881C13.3233 34.2764 13.6381 34.5913 14.0264 34.5913H18H32.6399H35.2969C35.6852 34.5913 36 34.2764 36 33.8881V2.11133C36 1.72299 35.6852 1.4082 35.2969 1.4082ZM30.7979 23.7008H29.7266C29.7311 23.6191 29.7339 23.537 29.7339 23.4543V22.4862C29.7339 22.4797 29.7334 22.4733 29.7334 22.4668H30.7979V23.7008ZM19.842 23.7008V22.4668H20.9065C20.9065 22.4733 20.906 22.4797 20.906 22.4862V23.4543C20.906 23.537 20.9088 23.6191 20.9133 23.7008H19.842ZM21.1436 21.0605H20.0131C20.6196 18.6958 22.7688 16.9428 25.32 16.9428C27.8711 16.9428 30.0203 18.6958 30.6268 21.0605H29.4963C28.902 19.3243 27.255 18.0722 25.32 18.0722C23.385 18.0722 21.738 19.3243 21.1436 21.0605ZM25.32 23.3691C24.9316 23.3691 24.6168 23.684 24.6168 24.0722V24.7989C24.6168 25.1871 24.9316 25.502 25.32 25.502H27.5202C27.3606 25.6733 27.1817 25.8261 26.9864 25.9565C26.9402 25.979 26.8966 26.0065 26.8562 26.0387C26.4062 26.3071 25.8809 26.462 25.32 26.462C24.759 26.462 24.2338 26.3072 23.7838 26.0387C23.7434 26.0066 23.6997 25.979 23.6533 25.9565C22.8455 25.4166 22.3123 24.4966 22.3123 23.4543V22.4862C22.3123 20.8277 23.6615 19.4785 25.32 19.4785C26.9784 19.4785 28.3276 20.8277 28.3276 22.4862V23.4543C28.3276 23.6744 28.3032 23.8889 28.2581 24.0957H26.0231V24.0722C26.0231 23.684 25.7083 23.3691 25.32 23.3691ZM31.9367 33.185H18.7031V30.1472C18.7031 29.3818 19.1912 28.7059 19.9177 28.4652L23.2614 27.357C23.8765 27.6828 24.5768 27.8681 25.32 27.8681C26.0631 27.8681 26.7634 27.6828 27.3785 27.357L30.7222 28.4652C31.4487 28.7059 31.9367 29.3818 31.9367 30.1472V33.185ZM34.5938 6.4707H1.47684C1.45301 6.4707 1.42945 6.47197 1.40625 6.47429V2.81445H34.5938V6.4707Z" fill="#004F44"/>
<path d="M11.3589 33.3916C11.2281 33.2601 11.0467 33.1855 10.8618 33.1855C10.6762 33.1855 10.4955 33.2601 10.3647 33.3916C10.2332 33.5223 10.1587 33.7038 10.1587 33.8887C10.1587 34.0736 10.2332 34.255 10.3647 34.3858C10.4955 34.5165 10.6762 34.5918 10.8618 34.5918C11.0467 34.5918 11.2281 34.5166 11.3589 34.3858C11.4897 34.255 11.5649 34.0736 11.5649 33.8887C11.5649 33.7038 11.4897 33.5223 11.3589 33.3916Z" fill="#004F44"/>
<path d="M31.4998 3.93945H15.6138C15.2254 3.93945 14.9106 4.25431 14.9106 4.64258C14.9106 5.03084 15.2254 5.3457 15.6138 5.3457H31.4998C31.8882 5.3457 32.2029 5.03084 32.2029 4.64258C32.2029 4.25431 31.8882 3.93945 31.4998 3.93945Z" fill="#004F44"/>
<path d="M7.80961 4.14547C7.67883 4.01462 7.49742 3.93945 7.3125 3.93945C7.12758 3.93945 6.94617 4.01462 6.81539 4.14547C6.68461 4.27618 6.60938 4.45759 6.60938 4.64258C6.60938 4.8275 6.68461 5.00891 6.81539 5.13962C6.94617 5.2704 7.12758 5.3457 7.3125 5.3457C7.49742 5.3457 7.67883 5.27047 7.80961 5.13962C7.94039 5.00891 8.01562 4.8275 8.01562 4.64258C8.01562 4.45759 7.94039 4.27618 7.80961 4.14547Z" fill="#004F44"/>
<path d="M4.99711 4.14547C4.86633 4.01462 4.68492 3.93945 4.5 3.93945C4.31508 3.93945 4.13367 4.01462 4.00289 4.14547C3.87211 4.27618 3.79688 4.45759 3.79688 4.64258C3.79688 4.8275 3.87211 5.00891 4.00289 5.13962C4.13367 5.2704 4.31508 5.3457 4.5 5.3457C4.68492 5.3457 4.86633 5.27047 4.99711 5.13962C5.12789 5.00891 5.20312 4.8275 5.20312 4.64258C5.20312 4.45759 5.12789 4.27618 4.99711 4.14547Z" fill="#004F44"/>
<path d="M10.6221 4.14547C10.4913 4.01462 10.3099 3.93945 10.125 3.93945C9.94008 3.93945 9.75867 4.01462 9.62789 4.14547C9.49711 4.27618 9.42188 4.45759 9.42188 4.64258C9.42188 4.8275 9.49711 5.00891 9.62789 5.13962C9.75867 5.2704 9.94008 5.3457 10.125 5.3457C10.3099 5.3457 10.4913 5.27047 10.6221 5.13962C10.7529 5.00891 10.8281 4.8275 10.8281 4.64258C10.8281 4.45759 10.7529 4.27618 10.6221 4.14547Z" fill="#004F44"/>
<path d="M15.0714 9.70508H6.65367C5.07839 9.70508 3.79688 10.9867 3.79688 12.5619V18.3795C3.79688 19.9547 5.07846 21.2363 6.65367 21.2363H15.0713C16.6466 21.2363 17.9282 19.9547 17.9282 18.3795V12.5619C17.9282 10.9867 16.6466 9.70508 15.0714 9.70508ZM15.0714 19.8301H6.65367C5.85387 19.8301 5.20312 19.1793 5.20312 18.3795V12.5619C5.20312 11.7621 5.85387 11.1113 6.65367 11.1113H15.0713C15.8711 11.1113 16.5219 11.7621 16.5219 12.5619V18.3795H16.522C16.522 19.1793 15.8712 19.8301 15.0714 19.8301Z" fill="#004F44"/>
<path d="M12.9635 14.2885L10.2758 12.5657C9.84366 12.2888 9.29536 12.2696 8.84494 12.5159C8.39452 12.7622 8.11475 13.234 8.11475 13.7474V17.1929C8.11475 17.7062 8.39452 18.1781 8.84494 18.4244C9.05532 18.5394 9.28707 18.5965 9.51832 18.5965C9.78221 18.5965 10.0455 18.5221 10.2758 18.3745L12.9635 16.6518C13.3681 16.3925 13.6097 15.9507 13.6097 15.4701C13.6097 14.9895 13.368 14.5478 12.9635 14.2885ZM9.521 17.1876L9.52121 13.7524L12.201 15.4702L9.521 17.1876Z" fill="#004F44"/>
<path d="M9.66755 26.5801H4.5C4.11166 26.5801 3.79688 26.8949 3.79688 27.2832C3.79688 27.6715 4.11166 27.9863 4.5 27.9863H9.66755C10.0559 27.9863 10.3707 27.6715 10.3707 27.2832C10.3707 26.8949 10.0559 26.5801 9.66755 26.5801Z" fill="#004F44"/>
<path d="M14.8229 26.5801H12.875C12.4867 26.5801 12.1719 26.8949 12.1719 27.2832C12.1719 27.6715 12.4867 27.9863 12.875 27.9863H14.8229C15.2113 27.9863 15.5261 27.6715 15.5261 27.2832C15.5261 26.8949 15.2113 26.5801 14.8229 26.5801Z" fill="#004F44"/>
<path d="M11.91 23.2051H4.5C4.11166 23.2051 3.79688 23.5199 3.79688 23.9082C3.79688 24.2965 4.11166 24.6113 4.5 24.6113H11.91C12.2984 24.6113 12.6131 24.2965 12.6131 23.9082C12.6131 23.5199 12.2984 23.2051 11.91 23.2051Z" fill="#004F44"/>
<path d="M15.3457 23.4111C15.215 23.2803 15.0336 23.2051 14.8486 23.2051C14.663 23.2051 14.4823 23.2802 14.3515 23.4111C14.2207 23.5418 14.1455 23.7232 14.1455 23.9082C14.1455 24.0931 14.2207 24.2745 14.3515 24.4052C14.4823 24.536 14.663 24.6113 14.8486 24.6113C15.0336 24.6113 15.215 24.5361 15.3457 24.4052C15.4765 24.2745 15.5518 24.0931 15.5518 23.9082C15.5518 23.7233 15.4765 23.5419 15.3457 23.4111Z" fill="#004F44"/>
<path d="M14.8219 29.9551H4.5C4.11166 29.9551 3.79688 30.2699 3.79688 30.6582C3.79688 31.0465 4.11166 31.3613 4.5 31.3613H14.8219C15.2102 31.3613 15.525 31.0465 15.525 30.6582C15.525 30.2699 15.2102 29.9551 14.8219 29.9551Z" fill="#004F44"/>
</svg>
