<svg width="36" height="32" viewBox="0 0 36 32" fill="none" xmlns="http://www.w3.org/2000/svg">
<path d="M18 22.127C18.3883 22.127 18.7031 21.8122 18.7031 21.4238C18.7031 21.0355 18.3883 20.7207 18 20.7207C17.6117 20.7207 17.2969 21.0355 17.2969 21.4238C17.2969 21.8122 17.6117 22.127 18 22.127Z" fill="#141519"/>
<path d="M18 22.127C18.3883 22.127 18.7031 21.8122 18.7031 21.4238C18.7031 21.0355 18.3883 20.7207 18 20.7207C17.6117 20.7207 17.2969 21.0355 17.2969 21.4238C17.2969 21.8122 17.6117 22.127 18 22.127Z" fill="#004F44"/>
<path d="M33.182 0.0351562H2.81798C1.26415 0.0351562 0 1.2993 0 2.85314V22.5235C0 24.0773 1.26415 25.3415 2.81798 25.3415H14.1272L13.3386 27.7669C12.3409 27.9356 11.5785 28.8053 11.5785 29.8503C11.5785 31.0156 12.5266 31.9638 13.692 31.9638H22.3078C23.4732 31.9638 24.4214 31.0157 24.4214 29.8503C24.4214 28.8053 23.659 27.9356 22.6613 27.7669L21.8727 25.3415H33.1819C34.7357 25.3415 35.9999 24.0773 35.9999 22.5235V2.85314C36 1.2993 34.7359 0.0351562 33.182 0.0351562ZM23.0124 29.8503C23.0124 30.2388 22.6964 30.5549 22.3079 30.5549H13.6921C13.3037 30.5549 12.9876 30.2388 12.9876 29.8503C12.9876 29.4619 13.3036 29.1458 13.6921 29.1458H22.3079C22.6964 29.1458 23.0124 29.4619 23.0124 29.8503ZM21.17 27.7368H14.83L15.6088 25.3415H20.3912L21.17 27.7368ZM34.591 22.5235C34.591 23.3004 33.959 23.9325 33.182 23.9325H2.81798C2.04103 23.9325 1.40899 23.3004 1.40899 22.5235V2.85314C1.40899 2.07626 2.04103 1.44415 2.81798 1.44415H33.1819C33.9589 1.44415 34.5909 2.07626 34.5909 2.85314V22.5235H34.591Z" fill="#141519"/>
<path d="M33.182 0.0351562H2.81798C1.26415 0.0351562 0 1.2993 0 2.85314V22.5235C0 24.0773 1.26415 25.3415 2.81798 25.3415H14.1272L13.3386 27.7669C12.3409 27.9356 11.5785 28.8053 11.5785 29.8503C11.5785 31.0156 12.5266 31.9638 13.692 31.9638H22.3078C23.4732 31.9638 24.4214 31.0157 24.4214 29.8503C24.4214 28.8053 23.659 27.9356 22.6613 27.7669L21.8727 25.3415H33.1819C34.7357 25.3415 35.9999 24.0773 35.9999 22.5235V2.85314C36 1.2993 34.7359 0.0351562 33.182 0.0351562ZM23.0124 29.8503C23.0124 30.2388 22.6964 30.5549 22.3079 30.5549H13.6921C13.3037 30.5549 12.9876 30.2388 12.9876 29.8503C12.9876 29.4619 13.3036 29.1458 13.6921 29.1458H22.3079C22.6964 29.1458 23.0124 29.4619 23.0124 29.8503ZM21.17 27.7368H14.83L15.6088 25.3415H20.3912L21.17 27.7368ZM34.591 22.5235C34.591 23.3004 33.959 23.9325 33.182 23.9325H2.81798C2.04103 23.9325 1.40899 23.3004 1.40899 22.5235V2.85314C1.40899 2.07626 2.04103 1.44415 2.81798 1.44415H33.1819C33.9589 1.44415 34.5909 2.07626 34.5909 2.85314V22.5235H34.591Z" fill="#004F44"/>
<path d="M31.0259 3.24805H4.97415C4.00299 3.24805 3.21289 4.03815 3.21289 5.0093V20.3675C3.21289 21.3386 4.00299 22.1287 4.97415 22.1287H14.8421C15.2311 22.1287 15.5466 21.8133 15.5466 21.4242C15.5466 21.0351 15.2312 20.7196 14.8421 20.7196H4.97415C4.77995 20.7196 4.62188 20.5616 4.62188 20.3674V5.0093C4.62188 4.8151 4.77995 4.65704 4.97415 4.65704H31.026C31.2202 4.65704 31.3783 4.8151 31.3783 5.0093V20.3675C31.3783 20.5617 31.2202 20.7197 31.026 20.7197H21.158C20.7689 20.7197 20.4534 21.0351 20.4534 21.4243C20.4534 21.8134 20.7689 22.1288 21.158 22.1288H31.0259C31.9971 22.1288 32.7872 21.3387 32.7872 20.3675V5.0093C32.7872 4.03815 31.9971 3.24805 31.0259 3.24805Z" fill="#141519"/>
<path d="M31.0259 3.24805H4.97415C4.00299 3.24805 3.21289 4.03815 3.21289 5.0093V20.3675C3.21289 21.3386 4.00299 22.1287 4.97415 22.1287H14.8421C15.2311 22.1287 15.5466 21.8133 15.5466 21.4242C15.5466 21.0351 15.2312 20.7196 14.8421 20.7196H4.97415C4.77995 20.7196 4.62188 20.5616 4.62188 20.3674V5.0093C4.62188 4.8151 4.77995 4.65704 4.97415 4.65704H31.026C31.2202 4.65704 31.3783 4.8151 31.3783 5.0093V20.3675C31.3783 20.5617 31.2202 20.7197 31.026 20.7197H21.158C20.7689 20.7197 20.4534 21.0351 20.4534 21.4243C20.4534 21.8134 20.7689 22.1288 21.158 22.1288H31.0259C31.9971 22.1288 32.7872 21.3387 32.7872 20.3675V5.0093C32.7872 4.03815 31.9971 3.24805 31.0259 3.24805Z" fill="#004F44"/>
<path d="M13.9188 10.1465V7.81009C13.9188 6.83893 13.1287 6.04883 12.1575 6.04883H8.36819C7.39704 6.04883 6.60693 6.83893 6.60693 7.81009V10.1465C6.60693 11.1177 7.39704 11.9078 8.36819 11.9078H12.1575C13.1287 11.9077 13.9188 11.1177 13.9188 10.1465ZM12.5098 10.1465C12.5098 10.3407 12.3517 10.4988 12.1575 10.4988H8.36819C8.17399 10.4988 8.01593 10.3407 8.01593 10.1465V7.81009C8.01593 7.61588 8.17399 7.45782 8.36819 7.45782H12.1575C12.3517 7.45782 12.5098 7.61588 12.5098 7.81009V10.1465Z" fill="#141519"/>
<path d="M13.9188 10.1465V7.81009C13.9188 6.83893 13.1287 6.04883 12.1575 6.04883H8.36819C7.39704 6.04883 6.60693 6.83893 6.60693 7.81009V10.1465C6.60693 11.1177 7.39704 11.9078 8.36819 11.9078H12.1575C13.1287 11.9077 13.9188 11.1177 13.9188 10.1465ZM12.5098 10.1465C12.5098 10.3407 12.3517 10.4988 12.1575 10.4988H8.36819C8.17399 10.4988 8.01593 10.3407 8.01593 10.1465V7.81009C8.01593 7.61588 8.17399 7.45782 8.36819 7.45782H12.1575C12.3517 7.45782 12.5098 7.61588 12.5098 7.81009V10.1465Z" fill="#004F44"/>
<path d="M28.9464 13.3552C28.8812 13.1122 28.6914 12.9222 28.4483 12.8571L23.2765 11.4714C23.0332 11.406 22.774 11.4757 22.596 11.6537C22.418 11.8316 22.3485 12.0911 22.4137 12.3342L23.7994 17.506C23.8646 17.7491 24.0544 17.939 24.2976 18.0042C24.5409 18.0694 24.8001 17.9997 24.9781 17.8218L25.3766 17.4233L27.2567 19.3034C27.3889 19.4355 27.568 19.5097 27.7548 19.5097C27.9417 19.5097 28.1208 19.4354 28.253 19.3033L30.2457 17.3107C30.5208 17.0355 30.5208 16.5895 30.2457 16.3143L28.3655 14.4343L28.764 14.0358C28.9421 13.8578 29.0116 13.5984 28.9464 13.3552ZM28.7512 16.8125L27.7549 17.8088L25.8748 15.9288C25.7372 15.7912 25.5569 15.7225 25.3767 15.7225C25.1964 15.7225 25.0161 15.7912 24.8785 15.9288L24.8447 15.9626L24.0905 13.1482L26.905 13.9023L26.8711 13.9362C26.596 14.2113 26.596 14.6574 26.8711 14.9325L28.7512 16.8125Z" fill="#141519"/>
<path d="M28.9464 13.3552C28.8812 13.1122 28.6914 12.9222 28.4483 12.8571L23.2765 11.4714C23.0332 11.406 22.774 11.4757 22.596 11.6537C22.418 11.8316 22.3485 12.0911 22.4137 12.3342L23.7994 17.506C23.8646 17.7491 24.0544 17.939 24.2976 18.0042C24.5409 18.0694 24.8001 17.9997 24.9781 17.8218L25.3766 17.4233L27.2567 19.3034C27.3889 19.4355 27.568 19.5097 27.7548 19.5097C27.9417 19.5097 28.1208 19.4354 28.253 19.3033L30.2457 17.3107C30.5208 17.0355 30.5208 16.5895 30.2457 16.3143L28.3655 14.4343L28.764 14.0358C28.9421 13.8578 29.0116 13.5984 28.9464 13.3552ZM28.7512 16.8125L27.7549 17.8088L25.8748 15.9288C25.7372 15.7912 25.5569 15.7225 25.3767 15.7225C25.1964 15.7225 25.0161 15.7912 24.8785 15.9288L24.8447 15.9626L24.0905 13.1482L26.905 13.9023L26.8711 13.9362C26.596 14.2113 26.596 14.6574 26.8711 14.9325L28.7512 16.8125Z" fill="#004F44"/>
<path d="M15.6181 8.2743H19.9636C20.3526 8.2743 20.6681 7.95887 20.6681 7.56977C20.6681 7.18066 20.3527 6.86523 19.9636 6.86523H15.6181C15.2291 6.86523 14.9136 7.18066 14.9136 7.56977C14.9136 7.95887 15.2291 8.2743 15.6181 8.2743Z" fill="#141519"/>
<path d="M15.6181 8.2743H19.9636C20.3526 8.2743 20.6681 7.95887 20.6681 7.56977C20.6681 7.18066 20.3527 6.86523 19.9636 6.86523H15.6181C15.2291 6.86523 14.9136 7.18066 14.9136 7.56977C14.9136 7.95887 15.2291 8.2743 15.6181 8.2743Z" fill="#004F44"/>
<path d="M15.6181 11.0927H19.9636C20.3526 11.0927 20.6681 10.7772 20.6681 10.3881C20.6681 9.99902 20.3527 9.68359 19.9636 9.68359H15.6181C15.2291 9.68359 14.9136 9.99902 14.9136 10.3881C14.9136 10.7772 15.2291 11.0927 15.6181 11.0927Z" fill="#141519"/>
<path d="M15.6181 11.0927H19.9636C20.3526 11.0927 20.6681 10.7772 20.6681 10.3881C20.6681 9.99902 20.3527 9.68359 19.9636 9.68359H15.6181C15.2291 9.68359 14.9136 9.99902 14.9136 10.3881C14.9136 10.7772 15.2291 11.0927 15.6181 11.0927Z" fill="#004F44"/>
<path d="M15.6181 15.1278H19.9636C20.3526 15.1278 20.6681 14.8124 20.6681 14.4233C20.6681 14.0342 20.3527 13.7188 19.9636 13.7188H15.6181C15.2291 13.7188 14.9136 14.0342 14.9136 14.4233C14.9136 14.8124 15.2291 15.1278 15.6181 15.1278Z" fill="#141519"/>
<path d="M15.6181 15.1278H19.9636C20.3526 15.1278 20.6681 14.8124 20.6681 14.4233C20.6681 14.0342 20.3527 13.7188 19.9636 13.7188H15.6181C15.2291 13.7188 14.9136 14.0342 14.9136 14.4233C14.9136 14.8124 15.2291 15.1278 15.6181 15.1278Z" fill="#004F44"/>
<path d="M20.6681 17.2397C20.6681 16.8506 20.3527 16.5352 19.9636 16.5352H15.6181C15.2291 16.5352 14.9136 16.8506 14.9136 17.2397C14.9136 17.6288 15.229 17.9442 15.6181 17.9442H19.9636C20.3527 17.9441 20.6681 17.6287 20.6681 17.2397Z" fill="#141519"/>
<path d="M20.6681 17.2397C20.6681 16.8506 20.3527 16.5352 19.9636 16.5352H15.6181C15.2291 16.5352 14.9136 16.8506 14.9136 17.2397C14.9136 17.6288 15.229 17.9442 15.6181 17.9442H19.9636C20.3527 17.9441 20.6681 17.6287 20.6681 17.2397Z" fill="#004F44"/>
<path d="M7.3335 15.9002C7.3335 17.5155 8.64764 18.8296 10.2629 18.8296C11.8782 18.8296 13.1924 17.5155 13.1924 15.9002C13.1924 14.2848 11.8782 12.9707 10.2629 12.9707C8.64764 12.9707 7.3335 14.2849 7.3335 15.9002ZM11.7834 15.9002C11.7834 16.7386 11.1013 17.4206 10.2629 17.4206C9.42459 17.4206 8.74249 16.7385 8.74249 15.9002C8.74249 15.0618 9.42459 14.3797 10.2629 14.3797C11.1013 14.3797 11.7834 15.0618 11.7834 15.9002Z" fill="#141519"/>
<path d="M7.3335 15.9002C7.3335 17.5155 8.64764 18.8296 10.2629 18.8296C11.8782 18.8296 13.1924 17.5155 13.1924 15.9002C13.1924 14.2848 11.8782 12.9707 10.2629 12.9707C8.64764 12.9707 7.3335 14.2849 7.3335 15.9002ZM11.7834 15.9002C11.7834 16.7386 11.1013 17.4206 10.2629 17.4206C9.42459 17.4206 8.74249 16.7385 8.74249 15.9002C8.74249 15.0618 9.42459 14.3797 10.2629 14.3797C11.1013 14.3797 11.7834 15.0618 11.7834 15.9002Z" fill="#004F44"/>
</svg>
