<svg width="142" height="44" viewBox="0 0 142 44" fill="none" xmlns="http://www.w3.org/2000/svg">
<g clip-path="url(#clip0_4003_103)">
<path d="M58.304 35.1013V12.6053H62.656V35.1013H58.304ZM61.504 35.1013V31.2613H73.952V35.1013H61.504ZM61.504 25.4693V21.7573H72.832V25.4693H61.504ZM61.504 16.4453V12.6053H73.792V16.4453H61.504ZM82.8065 35.4213C81.3772 35.4213 80.0972 35.0693 78.9665 34.3653C77.8358 33.6613 76.9398 32.7013 76.2785 31.4853C75.6385 30.2693 75.3185 28.904 75.3185 27.3893C75.3185 25.8533 75.6385 24.4773 76.2785 23.2613C76.9398 22.0453 77.8252 21.0853 78.9345 20.3813C80.0652 19.6773 81.3558 19.3253 82.8065 19.3253C83.9158 19.3253 84.9078 19.5493 85.7825 19.9973C86.6785 20.4453 87.3932 21.0747 87.9265 21.8853C88.4812 22.6747 88.7798 23.5707 88.8225 24.5733V30.0773C88.7798 31.08 88.4918 31.9867 87.9585 32.7973C87.4252 33.608 86.7105 34.248 85.8145 34.7173C84.9185 35.1867 83.9158 35.4213 82.8065 35.4213ZM83.5105 31.5493C84.2998 31.5493 84.9825 31.3787 85.5585 31.0373C86.1558 30.6747 86.6145 30.184 86.9345 29.5653C87.2758 28.9253 87.4465 28.1893 87.4465 27.3573C87.4465 26.5467 87.2758 25.832 86.9345 25.2133C86.6145 24.5733 86.1558 24.0827 85.5585 23.7413C84.9825 23.3787 84.3105 23.1973 83.5425 23.1973C82.7532 23.1973 82.0598 23.3787 81.4625 23.7413C80.8865 24.104 80.4278 24.5947 80.0865 25.2133C79.7665 25.832 79.6065 26.5467 79.6065 27.3573C79.6065 28.1893 79.7665 28.9253 80.0865 29.5653C80.4278 30.184 80.8972 30.6747 81.4945 31.0373C82.0918 31.3787 82.7638 31.5493 83.5105 31.5493ZM91.3825 35.1013H87.2225V30.9413L87.8945 27.1653L87.1905 23.4533V11.9653H91.3825V35.1013ZM101.043 35.4213C99.6777 35.4213 98.4617 35.1333 97.395 34.5573C96.3497 33.9813 95.5283 33.1813 94.931 32.1573C94.3337 31.1333 94.035 29.9493 94.035 28.6053V19.6453H98.259V28.5093C98.259 29.1493 98.3657 29.704 98.579 30.1733C98.7923 30.6213 99.1123 30.9627 99.539 31.1973C99.9657 31.432 100.467 31.5493 101.043 31.5493C101.918 31.5493 102.6 31.2827 103.091 30.7493C103.582 30.216 103.827 29.4693 103.827 28.5093V19.6453H108.019V28.6053C108.019 29.9707 107.72 31.1653 107.123 32.1893C106.547 33.2133 105.726 34.0133 104.659 34.5893C103.614 35.144 102.408 35.4213 101.043 35.4213ZM118.109 35.4213C116.488 35.4213 115.048 35.08 113.789 34.3973C112.531 33.6933 111.528 32.7333 110.781 31.5173C110.056 30.3013 109.693 28.9147 109.693 27.3573C109.693 25.8213 110.045 24.456 110.749 23.2613C111.475 22.0453 112.456 21.0853 113.693 20.3813C114.931 19.656 116.307 19.2933 117.821 19.2933C119.315 19.2933 120.627 19.6347 121.757 20.3173C122.909 20.9787 123.805 21.896 124.445 23.0693C125.107 24.2213 125.437 25.5333 125.437 27.0053C125.437 27.2827 125.416 27.5707 125.373 27.8693C125.352 28.1467 125.299 28.4667 125.213 28.8293L112.221 28.8613V25.7253L123.261 25.6933L121.565 27.0053C121.523 26.088 121.352 25.32 121.053 24.7013C120.776 24.0827 120.36 23.6133 119.805 23.2933C119.272 22.952 118.611 22.7813 117.821 22.7813C116.989 22.7813 116.264 22.9733 115.645 23.3573C115.027 23.72 114.547 24.2427 114.205 24.9253C113.885 25.5867 113.725 26.376 113.725 27.2933C113.725 28.232 113.896 29.0533 114.237 29.7573C114.6 30.44 115.112 30.9733 115.773 31.3573C116.435 31.72 117.203 31.9013 118.077 31.9013C118.867 31.9013 119.581 31.7733 120.221 31.5173C120.861 31.24 121.416 30.8347 121.885 30.3013L124.349 32.7653C123.603 33.64 122.685 34.3013 121.597 34.7493C120.531 35.1973 119.368 35.4213 118.109 35.4213ZM136.648 35.1013L132.584 28.8293L131.72 28.1893L125.704 19.6453H130.664L134.408 25.3093L135.208 25.9173L141.576 35.1013H136.648ZM125.384 35.1013L131.688 26.2693L134.088 29.1173L130.12 35.1013H125.384ZM135.368 28.1573L132.904 25.3413L136.584 19.6453H141.288L135.368 28.1573Z" fill="black"/>
<path d="M39.512 32.7208C38.3064 32.6427 37.1106 33.0355 36.2094 33.8401C34.8283 35.0731 33.6148 36.885 33.1955 37.5423C33.1163 37.6665 33.1866 37.8321 33.331 37.8611C37.7198 38.7416 41.6762 32.4443 41.6762 32.4443C40.8301 32.7305 40.0439 32.7554 39.512 32.7208Z" fill="#004F44"/>
<path d="M31.3744 36.5161C31.9137 35.8493 33.0287 34.3853 33.6709 32.9356C34.1281 31.9032 34.1347 30.7268 33.7194 29.6768C33.5362 29.2135 33.3329 28.5071 33.3449 27.6724C33.3449 27.6724 29.0322 32.8133 30.8185 36.4565C30.9247 36.6733 31.2224 36.7038 31.3744 36.5161Z" fill="#004F44"/>
<path d="M35.1565 30.8416C35.2829 30.9959 35.5271 30.9673 35.6137 30.7878C35.9213 30.1506 36.5436 28.7589 36.7868 27.4685C36.9596 26.5511 36.7425 25.603 36.2097 24.8364C35.9747 24.4982 35.6774 23.9679 35.5293 23.2939C35.5293 23.2939 33.0301 28.2471 35.1565 30.8416Z" fill="#004F44"/>
<path d="M37.4549 25.7128C37.6657 25.9137 38.0167 25.8071 38.088 25.5247C38.2688 24.8088 38.5436 23.5298 38.5389 22.3862C38.5353 21.4823 38.1403 20.6291 37.4979 19.9932C37.2179 19.7162 36.854 19.2781 36.5989 18.6855C36.5989 18.6855 35.2095 23.5721 37.4549 25.7128Z" fill="#004F44"/>
<path d="M36.7723 15.0435C36.7723 15.0435 36.6475 19.2747 38.9341 20.4434C39.1003 20.5283 39.2976 20.4058 39.2989 20.2192C39.3029 19.6455 39.2746 18.5146 39.0305 17.5649C38.8501 16.8629 38.3854 16.2677 37.7584 15.9041C37.4818 15.7437 37.0983 15.4687 36.7723 15.0435Z" fill="#004F44"/>
<path d="M39.0722 16.1047C39.1721 16.1508 39.2873 16.0771 39.2889 15.967C39.295 15.5397 39.282 14.5722 39.0751 13.7674C38.9309 13.2062 38.5593 12.7303 38.0581 12.4396C37.837 12.3113 37.5304 12.0915 37.2697 11.7515C37.2697 11.7515 37.1673 15.225 39.0722 16.1047Z" fill="#004F44"/>
<path d="M38.4981 11.5061C38.6038 11.5625 38.7313 11.4905 38.7318 11.3707C38.7334 11.0342 38.7152 10.3947 38.5768 9.85616C38.4726 9.45089 38.2042 9.10726 37.8423 8.89729C37.6826 8.80464 37.4612 8.6459 37.2729 8.40039C37.2729 8.40039 37.2017 10.8149 38.4981 11.5061Z" fill="#004F44"/>
<path d="M39.2448 28.4458C38.408 29.4436 37.7066 30.7398 37.2966 31.5757C37.0888 31.9993 37.4387 32.4765 37.9065 32.4148C41.5693 31.9314 43.9854 26.4741 43.9854 26.4741C43.2609 26.8425 42.5562 26.9677 42.0727 27.0061C40.9767 27.0933 39.9512 27.6034 39.2448 28.4458Z" fill="#004F44"/>
<path d="M40.6406 22.4264C40.0058 23.7843 39.6577 25.6082 39.5324 26.3659C39.5003 26.5595 39.6562 26.7327 39.8521 26.7222C43.3717 26.5352 44.3654 20.0669 44.3654 20.0669C43.8112 20.4974 43.2197 20.6731 42.8033 20.7441C41.8593 20.9053 41.0724 21.5029 40.6406 22.4264Z" fill="#004F44"/>
<path d="M41.0747 17.597C40.7129 18.7114 40.6136 20.0984 40.5867 20.7039C40.5797 20.8602 40.7302 20.9802 40.8792 20.9324C43.6421 20.0465 43.7917 15.0693 43.7917 15.0693C43.3953 15.504 42.9443 15.7585 42.6215 15.8988C41.89 16.217 41.3256 16.8242 41.0747 17.597Z" fill="#004F44"/>
<path d="M41.2235 13.3537C40.8901 14.3938 40.8116 15.675 40.7934 16.156C40.7897 16.2541 40.887 16.3238 40.9795 16.2909C43.4881 15.3976 43.6172 10.9775 43.6172 10.9775C43.268 11.3814 42.8705 11.6325 42.5859 11.776C41.941 12.1011 41.444 12.666 41.2235 13.3537Z" fill="#004F44"/>
<path d="M40.7773 12.2987C42.7356 11.0188 42.018 7.20752 42.018 7.20752C41.7914 7.62484 41.4936 7.91851 41.2737 8.09723C40.7751 8.50224 40.4505 9.08752 40.3897 9.72692C40.301 10.6583 40.4603 11.7392 40.5397 12.1941C40.5589 12.3036 40.6843 12.3595 40.7773 12.2987Z" fill="#004F44"/>
<path d="M40.3348 18.5035C40.4346 16.3279 40.2864 14.1448 39.9056 12.0071C39.5256 9.86892 38.9136 7.77714 38.107 5.76828C37.3008 3.75855 36.3013 1.83205 35.1559 0C36.2586 1.85837 37.2108 3.80392 37.9666 5.82257C38.7228 7.84033 39.2816 9.93092 39.6086 12.0561C39.9364 14.1807 40.032 16.3388 39.8841 18.4777C39.7369 20.6167 39.3466 22.7356 38.7237 24.7808C37.481 28.8728 35.2999 32.6623 32.4088 35.7806C31.0874 37.2098 29.6163 38.4973 28.0297 39.6158C24.5301 42.0828 19.8353 42.0828 16.3358 39.6158C14.7491 38.4974 13.2781 37.2098 11.9566 35.7806C9.06553 32.6622 6.8845 28.8728 5.64179 24.7808C5.01887 22.7356 4.62858 20.6167 4.48139 18.4777C4.33342 16.3388 4.42906 14.1807 4.75682 12.0561C5.08381 9.93097 5.64256 7.84038 6.39878 5.82257C7.15463 3.80392 8.10675 1.85837 9.20947 0C8.06411 1.832 7.0646 3.75855 6.25843 5.76828C5.4519 7.77709 4.83985 9.86886 4.45981 12.0071C4.079 14.1448 3.93077 16.3279 4.03059 18.5035C4.12957 20.679 4.47624 22.8462 5.06367 24.949C6.23536 29.1561 8.37833 33.0991 11.2868 36.3864C14.1899 39.6764 17.8634 42.3097 21.9649 43.9572C21.9683 43.9586 21.9748 43.9611 21.9783 43.9624C22.1463 44.0253 22.3236 44.0062 22.4706 43.9283C26.5437 42.2789 30.1921 39.6576 33.0786 36.3864C35.9871 33.0991 38.1301 29.1561 39.3018 24.949C39.8892 22.8461 40.2358 20.679 40.3348 18.5035Z" fill="#004F44"/>
<path d="M8.1559 33.8401C7.25471 33.0355 6.05888 32.6427 4.8533 32.7208C4.32139 32.7554 3.5352 32.7305 2.68912 32.4443C2.68912 32.4443 6.64549 38.7416 11.0343 37.8611C11.1787 37.8321 11.2489 37.6664 11.1698 37.5423C10.7505 36.885 9.537 35.0731 8.1559 33.8401Z" fill="#004F44"/>
<path d="M12.9909 36.5162C13.1428 36.7039 13.4406 36.6734 13.5469 36.4565C15.3331 32.8134 11.0204 27.6724 11.0204 27.6724C11.0324 28.5071 10.8291 29.2136 10.6459 29.6768C10.2306 30.7268 10.2371 31.9032 10.6944 32.9356C11.3366 34.3854 12.4515 35.8494 12.9909 36.5162Z" fill="#004F44"/>
<path d="M8.75158 30.7878C8.83825 30.9673 9.08233 30.9959 9.20876 30.8416C11.3353 28.2471 8.83604 23.2939 8.83604 23.2939C8.68787 23.9679 8.39065 24.4982 8.15559 24.8364C7.62285 25.603 7.40571 26.5511 7.57855 27.4685C7.82175 28.7589 8.444 30.1506 8.75158 30.7878Z" fill="#004F44"/>
<path d="M6.91037 25.7128C9.15583 23.572 7.76639 18.6855 7.76639 18.6855C7.51119 19.2782 7.14733 19.7162 6.86741 19.9933C6.22492 20.6291 5.82995 21.4823 5.82629 22.3862C5.82171 23.5299 6.09652 24.8088 6.2773 25.5248C6.34863 25.8071 6.69957 25.9138 6.91037 25.7128Z" fill="#004F44"/>
<path d="M5.06635 20.2192C5.06764 20.4058 5.26499 20.5283 5.43114 20.4434C7.71775 19.2747 7.59301 15.0435 7.59301 15.0435C7.26695 15.4687 6.88346 15.7437 6.60684 15.9041C5.9799 16.2677 5.51514 16.8629 5.33473 17.5649C5.09066 18.5146 5.06233 19.6455 5.06635 20.2192Z" fill="#004F44"/>
<path d="M5.0764 15.967C5.07799 16.0771 5.1932 16.1509 5.29317 16.1047C7.19799 15.225 7.09566 11.7515 7.09566 11.7515C6.835 12.0915 6.52841 12.3113 6.30726 12.4396C5.80603 12.7303 5.43444 13.2062 5.29024 13.7674C5.08335 14.5721 5.07032 15.5396 5.0764 15.967Z" fill="#004F44"/>
<path d="M5.86711 11.5061C7.16348 10.8149 7.0923 8.40039 7.0923 8.40039C6.90406 8.6459 6.68265 8.80464 6.52294 8.89729C6.16098 9.10726 5.89265 9.45089 5.78846 9.85616C5.65008 10.3947 5.63179 11.0342 5.63339 11.3707C5.63396 11.4905 5.76143 11.5625 5.86711 11.5061Z" fill="#004F44"/>
<path d="M6.45879 32.4147C6.92663 32.4764 7.27654 31.9992 7.06873 31.5756C6.65867 30.7397 5.95731 29.4435 5.12054 28.4457C4.41413 27.6033 3.38862 27.0932 2.2927 27.0061C1.80919 26.9676 1.10443 26.8424 0.379944 26.4741C0.379944 26.4741 2.79593 31.9313 6.45879 32.4147Z" fill="#004F44"/>
<path d="M4.51317 26.7227C4.70913 26.7331 4.86493 26.5599 4.83294 26.3663C4.70769 25.6087 4.35948 23.7847 3.72466 22.4268C3.29292 21.5033 2.50596 20.9057 1.56207 20.7446C1.14562 20.6735 0.554167 20.4979 0 20.0674C0 20.0674 0.99369 26.5356 4.51317 26.7227Z" fill="#004F44"/>
<path d="M3.48599 20.9324C3.63499 20.9802 3.78548 20.8602 3.77853 20.7039C3.75164 20.0984 3.6523 18.7114 3.29049 17.597C3.03957 16.8242 2.47526 16.217 1.74377 15.8989C1.421 15.7585 0.969941 15.504 0.573578 15.0693C0.573578 15.0693 0.72309 20.0465 3.48599 20.9324Z" fill="#004F44"/>
<path d="M3.38582 16.2909C3.47827 16.3238 3.57555 16.2541 3.57185 16.156C3.55372 15.675 3.47523 14.3938 3.1418 13.3537C2.92132 12.666 2.42427 12.1011 1.7794 11.776C1.49485 11.6326 1.0973 11.3814 0.748169 10.9775C0.748169 10.9775 0.877182 15.3976 3.38582 16.2909Z" fill="#004F44"/>
<path d="M3.58798 12.2987C3.68099 12.3595 3.8064 12.3036 3.82551 12.1942C3.90492 11.7393 4.06427 10.6584 3.97559 9.72692C3.91471 9.08747 3.59014 8.50224 3.0916 8.09723C2.87163 7.91851 2.57395 7.6248 2.34728 7.20752C2.34728 7.20752 1.6297 11.0188 3.58798 12.2987Z" fill="#004F44"/>
<path d="M24.9671 19.9038C26.5053 18.3657 26.5053 15.872 24.9671 14.3338C23.429 12.7957 20.9352 12.7957 19.3971 14.3338C17.859 15.872 17.859 18.3657 19.3971 19.9038C20.9352 21.4419 23.429 21.4419 24.9671 19.9038Z" fill="#004F44"/>
<path d="M31.1846 11.456L22.3898 8.41584C22.3302 8.39524 22.2653 8.39524 22.2056 8.41584L13.1073 11.561C12.9513 11.6149 12.9525 11.8359 13.1091 11.8882L14.5367 12.3641V16.3395C14.5367 16.5022 14.635 16.634 14.7564 16.634H15.0335C15.1548 16.634 15.2531 16.5022 15.2531 16.3395V12.6028L18.4201 13.6585V14.2746C18.4201 14.8534 18.8893 15.3226 19.4681 15.3226H24.8971C25.4759 15.3226 25.9451 14.8534 25.9451 14.2746V13.7352L31.1816 11.9897C31.4371 11.9045 31.4391 11.5439 31.1846 11.456Z" fill="#004F44"/>
<path d="M15.4521 17.2794C15.4521 16.9717 15.2026 16.7222 14.8949 16.7222C14.5872 16.7222 14.3377 16.9717 14.3377 17.2794C14.3377 17.5871 14.5872 17.8366 14.8949 17.8366C15.2027 17.8366 15.4521 17.5871 15.4521 17.2794Z" fill="#004F44"/>
<path d="M15.1985 18.0649C15.1841 17.9752 15.1067 17.9092 15.0159 17.9092H14.8949H14.774C14.6832 17.9092 14.6058 17.9752 14.5913 18.0649L14.0645 21.3474C13.9921 21.7987 14.3407 22.2076 14.7977 22.2076H14.8949H14.9921C15.4492 22.2076 15.7977 21.7987 15.7253 21.3474L15.1985 18.0649Z" fill="#004F44"/>
<path d="M30.4983 27.4781C27.6329 30.8234 23.2306 32.7263 22.3086 35.2662C22.2651 35.3859 22.0995 35.3859 22.056 35.2662C21.134 32.7263 16.7317 30.8234 13.8663 27.4781C13.6852 27.2665 13.6962 26.9338 13.8933 26.7369L16.5377 24.0942C17.8231 22.8088 19.4371 22.0534 21.1098 21.8293C21.5135 21.7752 21.8557 22.1265 21.7919 22.5288L20.9504 27.8304C20.9292 27.9643 20.9719 28.1003 21.0659 28.198L21.8707 29.0346C22.0408 29.2114 22.3238 29.2115 22.4939 29.0346L23.2988 28.198C23.3928 28.1003 23.4355 27.9643 23.4143 27.8304L22.5728 22.5288C22.509 22.1266 22.8512 21.7753 23.2549 21.8293C24.9276 22.0535 26.5416 22.8089 27.827 24.0942L30.4714 26.737C30.6684 26.9339 30.6795 27.2665 30.4983 27.4781Z" fill="#004F44"/>
</g>
<defs>
<clipPath id="clip0_4003_103">
<rect width="142" height="44" fill="white"/>
</clipPath>
</defs>
</svg>
