<svg width="142" height="45" viewBox="0 0 142 45" fill="none" xmlns="http://www.w3.org/2000/svg">
<path d="M58.304 36V13.504H62.656V36H58.304ZM61.504 36V32.16H73.952V36H61.504ZM61.504 26.368V22.656H72.832V26.368H61.504ZM61.504 17.344V13.504H73.792V17.344H61.504ZM82.8065 36.32C81.3772 36.32 80.0972 35.968 78.9665 35.264C77.8358 34.56 76.9398 33.6 76.2785 32.384C75.6385 31.168 75.3185 29.8027 75.3185 28.288C75.3185 26.752 75.6385 25.376 76.2785 24.16C76.9398 22.944 77.8252 21.984 78.9345 21.28C80.0652 20.576 81.3558 20.224 82.8065 20.224C83.9158 20.224 84.9078 20.448 85.7825 20.896C86.6785 21.344 87.3932 21.9733 87.9265 22.784C88.4812 23.5733 88.7798 24.4693 88.8225 25.472V30.976C88.7798 31.9787 88.4918 32.8853 87.9585 33.696C87.4252 34.5067 86.7105 35.1467 85.8145 35.616C84.9185 36.0853 83.9158 36.32 82.8065 36.32ZM83.5105 32.448C84.2998 32.448 84.9825 32.2773 85.5585 31.936C86.1558 31.5733 86.6145 31.0827 86.9345 30.464C87.2758 29.824 87.4465 29.088 87.4465 28.256C87.4465 27.4453 87.2758 26.7307 86.9345 26.112C86.6145 25.472 86.1558 24.9813 85.5585 24.64C84.9825 24.2773 84.3105 24.096 83.5425 24.096C82.7532 24.096 82.0598 24.2773 81.4625 24.64C80.8865 25.0027 80.4278 25.4933 80.0865 26.112C79.7665 26.7307 79.6065 27.4453 79.6065 28.256C79.6065 29.088 79.7665 29.824 80.0865 30.464C80.4278 31.0827 80.8972 31.5733 81.4945 31.936C82.0918 32.2773 82.7638 32.448 83.5105 32.448ZM91.3825 36H87.2225V31.84L87.8945 28.064L87.1905 24.352V12.864H91.3825V36ZM101.043 36.32C99.6777 36.32 98.4617 36.032 97.395 35.456C96.3497 34.88 95.5283 34.08 94.931 33.056C94.3337 32.032 94.035 30.848 94.035 29.504V20.544H98.259V29.408C98.259 30.048 98.3657 30.6027 98.579 31.072C98.7923 31.52 99.1123 31.8613 99.539 32.096C99.9657 32.3307 100.467 32.448 101.043 32.448C101.918 32.448 102.6 32.1813 103.091 31.648C103.582 31.1147 103.827 30.368 103.827 29.408V20.544H108.019V29.504C108.019 30.8693 107.72 32.064 107.123 33.088C106.547 34.112 105.726 34.912 104.659 35.488C103.614 36.0427 102.408 36.32 101.043 36.32ZM118.109 36.32C116.488 36.32 115.048 35.9787 113.789 35.296C112.531 34.592 111.528 33.632 110.781 32.416C110.056 31.2 109.693 29.8133 109.693 28.256C109.693 26.72 110.045 25.3547 110.749 24.16C111.475 22.944 112.456 21.984 113.693 21.28C114.931 20.5547 116.307 20.192 117.821 20.192C119.315 20.192 120.627 20.5333 121.757 21.216C122.909 21.8773 123.805 22.7947 124.445 23.968C125.107 25.12 125.437 26.432 125.437 27.904C125.437 28.1813 125.416 28.4693 125.373 28.768C125.352 29.0453 125.299 29.3653 125.213 29.728L112.221 29.76V26.624L123.261 26.592L121.565 27.904C121.523 26.9867 121.352 26.2187 121.053 25.6C120.776 24.9813 120.36 24.512 119.805 24.192C119.272 23.8507 118.611 23.68 117.821 23.68C116.989 23.68 116.264 23.872 115.645 24.256C115.027 24.6187 114.547 25.1413 114.205 25.824C113.885 26.4853 113.725 27.2747 113.725 28.192C113.725 29.1307 113.896 29.952 114.237 30.656C114.6 31.3387 115.112 31.872 115.773 32.256C116.435 32.6187 117.203 32.8 118.077 32.8C118.867 32.8 119.581 32.672 120.221 32.416C120.861 32.1387 121.416 31.7333 121.885 31.2L124.349 33.664C123.603 34.5387 122.685 35.2 121.597 35.648C120.531 36.096 119.368 36.32 118.109 36.32ZM136.648 36L132.584 29.728L131.72 29.088L125.704 20.544H130.664L134.408 26.208L135.208 26.816L141.576 36H136.648ZM125.384 36L131.688 27.168L134.088 30.016L130.12 36H125.384ZM135.368 29.056L132.904 26.24L136.584 20.544H141.288L135.368 29.056Z" fill="#141519"/>
<path d="M39.512 33.6198C38.3064 33.5416 37.1106 33.9345 36.2094 34.7391C34.8283 35.9721 33.6148 37.784 33.1955 38.4413C33.1163 38.5655 33.1866 38.7311 33.331 38.76C37.7198 39.6406 41.6762 33.3433 41.6762 33.3433C40.8301 33.6295 40.0439 33.6544 39.512 33.6198Z" fill="#FFA729"/>
<path d="M31.3744 37.4148C31.9137 36.748 33.0287 35.2841 33.6708 33.8343C34.1281 32.802 34.1347 31.6255 33.7194 30.5756C33.5362 30.1123 33.3329 29.4058 33.3449 28.5711C33.3449 28.5711 29.0322 33.7121 30.8185 37.3553C30.9247 37.5721 31.2224 37.6026 31.3744 37.4148Z" fill="#FFA729"/>
<path d="M35.1565 31.7405C35.2829 31.8947 35.527 31.8662 35.6137 31.6866C35.9213 31.0494 36.5435 29.6578 36.7867 28.3673C36.9596 27.4499 36.7425 26.5019 36.2097 25.7353C35.9746 25.397 35.6774 24.8668 35.5293 24.1927C35.5293 24.1927 33.03 29.146 35.1565 31.7405Z" fill="#FFA729"/>
<path d="M37.4549 26.6115C37.6657 26.8124 38.0166 26.7058 38.088 26.4234C38.2687 25.7075 38.5436 24.4285 38.5389 23.2849C38.5353 22.3809 38.1403 21.5277 37.4979 20.8919C37.2179 20.6149 36.854 20.1768 36.5989 19.5841C36.5989 19.5841 35.2094 24.4708 37.4549 26.6115Z" fill="#FFA729"/>
<path d="M36.7723 15.9423C36.7723 15.9423 36.6475 20.1735 38.9341 21.3422C39.1003 21.4272 39.2977 21.3047 39.2989 21.1181C39.303 20.5444 39.2746 19.4135 39.0306 18.4638C38.8502 17.7618 38.3854 17.1666 37.7584 16.803C37.4818 16.6425 37.0983 16.3675 36.7723 15.9423Z" fill="#FFA729"/>
<path d="M39.0721 17.0032C39.1721 17.0494 39.2873 16.9756 39.2889 16.8656C39.295 16.4383 39.282 15.4707 39.0751 14.666C38.9309 14.1047 38.5593 13.6289 38.0581 13.3382C37.837 13.2099 37.5304 12.9901 37.2697 12.6501C37.2697 12.6501 37.1673 16.1236 39.0721 17.0032Z" fill="#FFA729"/>
<path d="M38.4981 12.4047C38.6038 12.461 38.7313 12.389 38.7318 12.2692C38.7334 11.9328 38.7152 11.2933 38.5768 10.7548C38.4726 10.3495 38.2043 10.0059 37.8423 9.79588C37.6826 9.70322 37.4612 9.54449 37.2729 9.29898C37.2729 9.29898 37.2018 11.7135 38.4981 12.4047Z" fill="#FFA729"/>
<path d="M39.2447 29.3444C38.408 30.3422 37.7066 31.6384 37.2966 32.4743C37.0888 32.8979 37.4387 33.3751 37.9065 33.3133C41.5693 32.83 43.9854 27.3727 43.9854 27.3727C43.2609 27.7411 42.5562 27.8663 42.0727 27.9047C40.9767 27.9919 39.9512 28.502 39.2447 29.3444Z" fill="#FFA729"/>
<path d="M40.6406 23.3253C40.0058 24.6833 39.6577 26.5072 39.5324 27.2648C39.5003 27.4585 39.6562 27.6317 39.8521 27.6212C43.3717 27.4342 44.3654 20.9659 44.3654 20.9659C43.8112 21.3964 43.2197 21.572 42.8033 21.6431C41.8593 21.8043 41.0724 22.4019 40.6406 23.3253Z" fill="#FFA729"/>
<path d="M41.0747 18.4955C40.7129 19.6099 40.6136 20.997 40.5867 21.6025C40.5798 21.7588 40.7302 21.8788 40.8792 21.831C43.6421 20.945 43.7917 15.9678 43.7917 15.9678C43.3953 16.4026 42.9443 16.657 42.6215 16.7974C41.89 17.1156 41.3257 17.7227 41.0747 18.4955Z" fill="#FFA729"/>
<path d="M41.2235 14.2525C40.8901 15.2926 40.8116 16.5737 40.7935 17.0548C40.7897 17.1529 40.887 17.2226 40.9795 17.1896C43.4881 16.2964 43.6172 11.8763 43.6172 11.8763C43.268 12.2802 42.8705 12.5313 42.5859 12.6748C41.941 12.9999 41.444 13.5648 41.2235 14.2525Z" fill="#FFA729"/>
<path d="M40.7773 13.1975C42.7356 11.9176 42.018 8.10624 42.018 8.10624C41.7914 8.52356 41.4936 8.81723 41.2737 8.99595C40.7751 9.40096 40.4505 9.98624 40.3897 10.6256C40.301 11.5571 40.4603 12.638 40.5397 13.0929C40.5589 13.2024 40.6843 13.2582 40.7773 13.1975Z" fill="#FFA729"/>
<path d="M40.3348 19.4023C40.4346 17.2267 40.2863 15.0436 39.9056 12.9059C39.5256 10.7677 38.9135 8.67591 38.107 6.66706C37.3007 4.65732 36.3013 2.73082 35.1559 0.898773C36.2586 2.75714 37.2108 4.7027 37.9666 6.72134C38.7228 8.73911 39.2816 10.8297 39.6086 12.9548C39.9364 15.0794 40.032 17.2375 39.8841 19.3765C39.7369 21.5154 39.3466 23.6344 38.7237 25.6796C37.481 29.7716 35.2999 33.5611 32.4088 36.6793C31.0874 38.1086 29.6163 39.3961 28.0297 40.5146C24.5301 42.9815 19.8353 42.9815 16.3358 40.5146C14.7491 39.3961 13.2781 38.1086 11.9566 36.6793C9.06552 33.561 6.88449 29.7716 5.64178 25.6796C5.01886 23.6344 4.62857 21.5154 4.48138 19.3765C4.33341 17.2375 4.42905 15.0794 4.75681 12.9548C5.0838 10.8297 5.64256 8.73916 6.39877 6.72134C7.15462 4.7027 8.10675 2.75714 9.20947 0.898773C8.0641 2.73077 7.06459 4.65732 6.25842 6.66706C5.45189 8.67586 4.83984 10.7676 4.4598 12.9059C4.07899 15.0436 3.93077 17.2267 4.03058 19.4023C4.12957 21.5778 4.47623 23.7449 5.06367 25.8477C6.23535 30.0549 8.37832 33.9979 11.2868 37.2852C14.1899 40.5751 17.8634 43.2085 21.9649 44.856C21.9683 44.8574 21.9748 44.8599 21.9783 44.8612C22.1463 44.9241 22.3236 44.9049 22.4705 44.827C26.5437 43.1777 30.1921 40.5563 33.0786 37.2852C35.9871 33.9979 38.1301 30.0549 39.3018 25.8477C39.8892 23.7449 40.2358 21.5778 40.3348 19.4023Z" fill="#FFA729"/>
<path d="M8.1559 34.7391C7.25471 33.9345 6.05888 33.5416 4.8533 33.6198C4.32139 33.6543 3.5352 33.6295 2.68912 33.3433C2.68912 33.3433 6.64549 39.6406 11.0343 38.76C11.1787 38.7311 11.2489 38.5654 11.1698 38.4413C10.7505 37.784 9.537 35.9721 8.1559 34.7391Z" fill="#FFA729"/>
<path d="M12.9909 37.4148C13.1428 37.6026 13.4406 37.5721 13.5469 37.3552C15.3331 33.7121 11.0204 28.5711 11.0204 28.5711C11.0324 29.4058 10.8291 30.1122 10.6459 30.5755C10.2306 31.6255 10.2371 32.8019 10.6944 33.8343C11.3366 35.2841 12.4515 36.748 12.9909 37.4148Z" fill="#FFA729"/>
<path d="M8.75158 31.6866C8.83826 31.8662 9.08233 31.8947 9.20877 31.7405C11.3353 29.146 8.83605 24.1927 8.83605 24.1927C8.68788 24.8668 8.39065 25.397 8.1556 25.7353C7.62285 26.5019 7.40572 27.45 7.57856 28.3673C7.82176 29.6578 8.44401 31.0494 8.75158 31.6866Z" fill="#FFA729"/>
<path d="M6.91035 26.6115C9.15581 24.4707 7.76637 19.5842 7.76637 19.5842C7.51118 20.1768 7.14732 20.6149 6.8674 20.892C6.22491 21.5278 5.82993 22.381 5.82627 23.2849C5.82169 24.4285 6.09651 25.7075 6.27728 26.4234C6.34861 26.7058 6.69955 26.8124 6.91035 26.6115Z" fill="#FFA729"/>
<path d="M5.06636 21.1181C5.06764 21.3047 5.265 21.4272 5.43115 21.3422C7.71776 20.1735 7.59302 15.9423 7.59302 15.9423C7.26696 16.3675 6.88347 16.6425 6.60685 16.803C5.97991 17.1666 5.51515 17.7618 5.33474 18.4638C5.09067 19.4135 5.06234 20.5444 5.06636 21.1181Z" fill="#FFA729"/>
<path d="M5.0764 16.8656C5.07799 16.9757 5.1932 17.0494 5.29317 17.0032C7.19799 16.1236 7.09566 12.6501 7.09566 12.6501C6.835 12.9901 6.52841 13.2099 6.30726 13.3382C5.80603 13.6289 5.43444 14.1047 5.29024 14.666C5.08335 15.4707 5.07032 16.4382 5.0764 16.8656Z" fill="#FFA729"/>
<path d="M5.86712 12.4047C7.16349 11.7135 7.09231 9.29898 7.09231 9.29898C6.90407 9.54449 6.68266 9.70322 6.52295 9.79588C6.16099 10.0059 5.89266 10.3495 5.78847 10.7548C5.65009 11.2933 5.6318 11.9327 5.6334 12.2692C5.63397 12.389 5.76144 12.461 5.86712 12.4047Z" fill="#FFA729"/>
<path d="M6.45878 33.3133C6.92663 33.3751 7.27654 32.8979 7.06872 32.4743C6.65866 31.6384 5.9573 30.3422 5.12054 29.3444C4.41413 28.502 3.38861 27.9919 2.29269 27.9047C1.80918 27.8663 1.10442 27.7411 0.379936 27.3728C0.379833 27.3727 2.79592 32.83 6.45878 33.3133Z" fill="#FFA729"/>
<path d="M4.51317 27.6212C4.70913 27.6316 4.86493 27.4584 4.83294 27.2648C4.70769 26.5072 4.35948 24.6833 3.72466 23.3253C3.29292 22.4019 2.50596 21.8043 1.56207 21.6432C1.14562 21.5721 0.554167 21.3964 0 20.966C0 20.966 0.99369 27.4342 4.51317 27.6212Z" fill="#FFA729"/>
<path d="M3.48599 21.831C3.63499 21.8787 3.78548 21.7588 3.77853 21.6025C3.75164 20.997 3.6523 19.61 3.29049 18.4955C3.03957 17.7227 2.47526 17.1156 1.74377 16.7975C1.421 16.6571 0.969941 16.4026 0.573578 15.9679C0.573578 15.9679 0.72309 20.9451 3.48599 21.831Z" fill="#FFA729"/>
<path d="M3.38583 17.1896C3.47828 17.2226 3.57557 17.1529 3.57186 17.0548C3.55373 16.5737 3.47524 15.2926 3.14182 14.2525C2.92133 13.5648 2.42428 12.9999 1.77942 12.6748C1.49487 12.5313 1.09732 12.2802 0.748184 11.8763C0.748184 11.8763 0.877198 16.2964 3.38583 17.1896Z" fill="#FFA729"/>
<path d="M3.58796 13.1975C3.68098 13.2582 3.80639 13.2024 3.82549 13.0929C3.90491 12.6381 4.06426 11.5572 3.97557 10.6257C3.91469 9.98624 3.59013 9.40101 3.09158 8.996C2.87161 8.81728 2.57393 8.52357 2.34727 8.10629C2.34727 8.10629 1.62968 11.9176 3.58796 13.1975Z" fill="#FFA729"/>
<path d="M24.9671 20.8026C26.5052 19.2644 26.5052 16.7706 24.9671 15.2325C23.429 13.6944 20.9352 13.6944 19.3971 15.2325C17.8589 16.7706 17.8589 19.2644 19.3971 20.8026C20.9352 22.3407 23.429 22.3407 24.9671 20.8026Z" fill="#004F44"/>
<path d="M31.1846 12.3546L22.3898 9.31449C22.3302 9.29389 22.2653 9.29389 22.2056 9.31449L13.1072 12.4596C12.9512 12.5136 12.9525 12.7346 13.109 12.7868L14.5367 13.2627V17.2382C14.5367 17.4009 14.635 17.5327 14.7564 17.5327H15.0335C15.1548 17.5327 15.2531 17.4009 15.2531 17.2382V13.5015L18.4201 14.5571V15.1733C18.4201 15.7521 18.8893 16.2213 19.4681 16.2213H24.8971C25.4759 16.2213 25.9451 15.7521 25.9451 15.1733V14.6339L31.1816 12.8884C31.4371 12.8032 31.4391 12.4426 31.1846 12.3546Z" fill="#004F44"/>
<path d="M15.4521 18.178C15.4521 17.8702 15.2026 17.6208 14.8949 17.6208C14.5872 17.6208 14.3377 17.8702 14.3377 18.178C14.3377 18.4857 14.5872 18.7352 14.8949 18.7352C15.2027 18.7352 15.4521 18.4857 15.4521 18.178Z" fill="#004F44"/>
<path d="M15.1985 18.9639C15.1841 18.8741 15.1067 18.8082 15.0159 18.8082H14.8949H14.774C14.6831 18.8082 14.6057 18.8741 14.5913 18.9639L14.0645 22.2464C13.9921 22.6976 14.3407 23.1066 14.7976 23.1066H14.8949H14.9921C15.4492 23.1066 15.7977 22.6977 15.7253 22.2464L15.1985 18.9639Z" fill="#004F44"/>
<path d="M30.4983 28.3768C27.6329 31.7221 23.2306 33.625 22.3086 36.1649C22.2651 36.2846 22.0995 36.2846 22.056 36.1649C21.134 33.625 16.7317 31.7221 13.8663 28.3768C13.6851 28.1652 13.6962 27.8325 13.8933 27.6356L16.5377 24.9928C17.8231 23.7074 19.4371 22.9521 21.1098 22.728C21.5135 22.6739 21.8556 23.0252 21.7918 23.4275L20.9504 28.7291C20.9292 28.8629 20.9719 28.999 21.0659 29.0967L21.8707 29.9333C22.0408 30.1101 22.3238 30.1101 22.4939 29.9333L23.2988 29.0967C23.3927 28.999 23.4355 28.8629 23.4143 28.7291L22.5728 23.4275C22.509 23.0252 22.8511 22.6739 23.2549 22.728C24.9276 22.9522 26.5416 23.7075 27.827 24.9929L30.4714 27.6356C30.6683 27.8325 30.6795 28.1652 30.4983 28.3768Z" fill="#004F44"/>
</svg>
